<svg width="21" height="20" viewBox="0 0 21 20" fill="none" xmlns="http://www.w3.org/2000/svg">
<path opacity="0.4" d="M18.2331 6.67485L12.7748 2.30819C11.7081 1.45819 10.0415 1.44985 8.98314 2.29985L3.52481 6.67485C2.74147 7.29985 2.26647 8.54985 2.43314 9.53319L3.48314 15.8165C3.72481 17.2249 5.03314 18.3332 6.45814 18.3332H15.2915C16.6998 18.3332 18.0331 17.1999 18.2748 15.8082L19.3248 9.52485C19.4748 8.54985 18.9998 7.29985 18.2331 6.67485Z" fill="#2E6CE9"/>
<path d="M10.875 15.625C10.5333 15.625 10.25 15.3417 10.25 15V12.5C10.25 12.1583 10.5333 11.875 10.875 11.875C11.2167 11.875 11.5 12.1583 11.5 12.5V15C11.5 15.3417 11.2167 15.625 10.875 15.625Z" fill="#2E6CE9"/>
</svg>
