<svg width="21" height="20" viewBox="0 0 21 20" fill="none" xmlns="http://www.w3.org/2000/svg">
<path opacity="0.4" d="M13.9084 3.0415H6.8417C4.78337 3.0415 3.1167 4.7165 3.1167 6.7665V14.6082C3.1167 16.6582 4.7917 18.3332 6.8417 18.3332H13.9C15.9584 18.3332 17.625 16.6582 17.625 14.6082V6.7665C17.6334 4.70817 15.9584 3.0415 13.9084 3.0415Z" fill="#9399A7"/>
<path d="M12.3335 1.6665H8.4168C7.55013 1.6665 6.8418 2.3665 6.8418 3.23317V4.0165C6.8418 4.88317 7.5418 5.58317 8.40846 5.58317H12.3335C13.2001 5.58317 13.9001 4.88317 13.9001 4.0165V3.23317C13.9085 2.3665 13.2001 1.6665 12.3335 1.6665Z" fill="#9399A7"/>
<path d="M12.8748 10.7915H7.0415C6.69984 10.7915 6.4165 10.5082 6.4165 10.1665C6.4165 9.82484 6.69984 9.5415 7.0415 9.5415H12.8748C13.2165 9.5415 13.4998 9.82484 13.4998 10.1665C13.4998 10.5082 13.2165 10.7915 12.8748 10.7915Z" fill="#9399A7"/>
<path d="M10.6915 14.125H7.0415C6.69984 14.125 6.4165 13.8417 6.4165 13.5C6.4165 13.1583 6.69984 12.875 7.0415 12.875H10.6915C11.0332 12.875 11.3165 13.1583 11.3165 13.5C11.3165 13.8417 11.0332 14.125 10.6915 14.125Z" fill="#9399A7"/>
</svg>
