<svg width="18" height="18" viewBox="0 0 18 18" fill="none" xmlns="http://www.w3.org/2000/svg">
<g id="vuesax/bulk/edit-2">
<g id="edit-2">
<path id="Vector" opacity="0.4" d="M15.75 16.5H2.25C1.9425 16.5 1.6875 16.245 1.6875 15.9375C1.6875 15.63 1.9425 15.375 2.25 15.375H15.75C16.0575 15.375 16.3125 15.63 16.3125 15.9375C16.3125 16.245 16.0575 16.5 15.75 16.5Z" fill="#979899"/>
<path id="Vector_2" opacity="0.4" d="M14.2649 2.61C12.8099 1.155 11.3849 1.1175 9.89243 2.61L8.98493 3.5175C8.90993 3.5925 8.87993 3.7125 8.90993 3.8175C9.47993 5.805 11.0699 7.395 13.0574 7.965C13.0874 7.9725 13.1174 7.98 13.1474 7.98C13.2299 7.98 13.3049 7.95 13.3649 7.89L14.2649 6.9825C15.0074 6.2475 15.3674 5.535 15.3674 4.815C15.3749 4.0725 15.0149 3.3525 14.2649 2.61Z" fill="#979899"/>
<path id="Vector_3" d="M11.7073 8.64748C11.4898 8.54248 11.2798 8.43748 11.0773 8.31748C10.9123 8.21998 10.7548 8.11498 10.5973 8.00248C10.4698 7.91998 10.3198 7.79998 10.1773 7.67998C10.1623 7.67248 10.1098 7.62748 10.0498 7.56748C9.80225 7.35748 9.52475 7.08748 9.27725 6.78748C9.25475 6.77248 9.21725 6.71998 9.16475 6.65248C9.08975 6.56248 8.96225 6.41248 8.84975 6.23998C8.75975 6.12748 8.65475 5.96248 8.55725 5.79748C8.43725 5.59498 8.33225 5.39248 8.22725 5.18248C8.12225 4.95748 8.03975 4.73998 7.96475 4.53748L3.25475 9.24748C3.15725 9.34498 3.06725 9.53248 3.04475 9.65998L2.63975 12.5325C2.56475 13.0425 2.70725 13.5225 3.02225 13.845C3.29225 14.1075 3.66725 14.25 4.07225 14.25C4.16225 14.25 4.25225 14.2425 4.34225 14.2275L7.22225 13.8225C7.35725 13.8 7.54475 13.71 7.63475 13.6125L12.3448 8.90248C12.1348 8.82748 11.9323 8.74498 11.7073 8.64748Z" fill="#979899"/>
</g>
</g>
</svg>
