<svg width="14" height="14" viewBox="0 0 14 14" fill="none" xmlns="http://www.w3.org/2000/svg">
<path d="M9.7935 0.333252H4.20683C1.78016 0.333252 0.333496 1.77992 0.333496 4.20659V9.78659C0.333496 12.2199 1.78016 13.6666 4.20683 13.6666H9.78683C12.2135 13.6666 13.6602 12.2199 13.6602 9.79325V4.20659C13.6668 1.77992 12.2202 0.333252 9.7935 0.333252ZM6.30016 10.6733C6.10683 10.8666 5.74016 11.0533 5.4735 11.0933L3.8335 11.3266C3.7735 11.3333 3.7135 11.3399 3.6535 11.3399C3.38016 11.3399 3.12683 11.2466 2.94683 11.0666C2.72683 10.8466 2.6335 10.5266 2.68683 10.1733L2.92016 8.53325C2.96016 8.25992 3.14016 7.89992 3.34016 7.70659L6.3135 4.73325C6.36683 4.87325 6.42016 5.01325 6.4935 5.17325C6.56016 5.31325 6.6335 5.45992 6.7135 5.59325C6.78016 5.70659 6.8535 5.81325 6.9135 5.89325C6.98683 6.00659 7.0735 6.11325 7.12683 6.17325C7.16016 6.21992 7.18683 6.25325 7.20016 6.26659C7.36683 6.46659 7.56016 6.65325 7.72683 6.79325C7.7735 6.83992 7.80016 6.86659 7.8135 6.87325C7.9135 6.95325 8.0135 7.03325 8.10016 7.09325C8.20683 7.17325 8.3135 7.24659 8.42683 7.30659C8.56016 7.38659 8.70683 7.45992 8.8535 7.53325C9.00683 7.59992 9.14683 7.65992 9.28683 7.70659L6.30016 10.6733ZM10.5802 6.39325L9.96683 7.01325C9.92683 7.05325 9.8735 7.07325 9.82016 7.07325C9.80016 7.07325 9.7735 7.07325 9.76016 7.06659C8.40683 6.67992 7.32683 5.59992 6.94016 4.24659C6.92016 4.17325 6.94016 4.09325 6.9935 4.04659L7.6135 3.42659C8.62683 2.41325 9.5935 2.43325 10.5868 3.42659C11.0935 3.93325 11.3402 4.41992 11.3402 4.92659C11.3335 5.40659 11.0868 5.88659 10.5802 6.39325Z" fill="#2E6CE9"/>
</svg>
