<svg width="21" height="20" viewBox="0 0 21 20" fill="none" xmlns="http://www.w3.org/2000/svg">
<path opacity="0.4" d="M10.5002 1.66665C5.89779 1.66665 2.16683 5.39761 2.16683 9.99998C2.16683 14.6024 5.89779 18.3333 10.5002 18.3333C15.1025 18.3333 18.8335 14.6024 18.8335 9.99998C18.8335 5.39761 15.1025 1.66665 10.5002 1.66665Z" fill="#E5851F"/>
<path d="M10.5 8.54165C10.1583 8.54165 9.875 8.82498 9.875 9.16665V13.3333C9.875 13.675 10.1583 13.9583 10.5 13.9583C10.8417 13.9583 11.125 13.675 11.125 13.3333V9.16665C11.125 8.82498 10.8417 8.54165 10.5 8.54165Z" fill="#E5851F"/>
<path d="M9.7335 6.98335C9.77516 7.08335 9.8335 7.17502 9.9085 7.25835C9.99183 7.33335 10.0835 7.39168 10.1835 7.43335C10.3835 7.51668 10.6168 7.51668 10.8168 7.43335C10.9168 7.39168 11.0085 7.33335 11.0918 7.25835C11.1668 7.17502 11.2252 7.08335 11.2668 6.98335C11.3085 6.88335 11.3335 6.77502 11.3335 6.66668C11.3335 6.55835 11.3085 6.45002 11.2668 6.35002C11.2252 6.24168 11.1668 6.15835 11.0918 6.07502C11.0085 6.00002 10.9168 5.94168 10.8168 5.90002C10.7168 5.85835 10.6085 5.83335 10.5002 5.83335C10.3918 5.83335 10.2835 5.85835 10.1835 5.90002C10.0835 5.94168 9.99183 6.00002 9.9085 6.07502C9.8335 6.15835 9.77516 6.24168 9.7335 6.35002C9.69183 6.45002 9.66683 6.55835 9.66683 6.66668C9.66683 6.77502 9.69183 6.88335 9.7335 6.98335Z" fill="#E5851F"/>
</svg>
