<svg width="257" height="379" viewBox="0 0 257 379" fill="none" xmlns="http://www.w3.org/2000/svg">
<path d="M12.5063 168.555C12.5063 168.555 30.445 220.229 64.6856 239.03" stroke="#DADEEB" stroke-width="1.26741" stroke-miterlimit="10" stroke-linecap="round"/>
<path d="M222.809 242.549L165.474 209.444C164.255 208.738 163.242 207.724 162.538 206.504C161.834 205.283 161.463 203.898 161.463 202.489C161.463 201.08 161.834 199.696 162.538 198.475C163.242 197.254 164.255 196.24 165.474 195.535L222.809 162.435C224.03 161.727 225.416 161.354 226.827 161.353C228.238 161.352 229.625 161.723 230.847 162.428C232.069 163.133 233.084 164.148 233.789 165.37C234.494 166.592 234.865 167.978 234.864 169.389V235.571C234.868 236.983 234.499 238.372 233.795 239.596C233.091 240.821 232.077 241.838 230.855 242.546C229.632 243.253 228.245 243.626 226.832 243.627C225.42 243.627 224.032 243.255 222.809 242.549Z" stroke="#DADEEB" stroke-width="1.26741" stroke-miterlimit="10"/>
<path d="M66.2714 128.625C66.2714 128.625 62.9471 145.034 66.2714 155.781" stroke="#FF2633" stroke-width="1.68988" stroke-miterlimit="10" stroke-linecap="round"/>
<path d="M70.1276 291.023C70.1276 291.023 71.3146 305.978 64.8568 315.835C58.399 325.691 52.1138 331.977 55.8525 343.548L104.451 318.909L98.5053 285.261L70.1276 291.023Z" fill="#FF2633"/>
<path d="M69.4385 310.214L80.5553 307.997" stroke="white" stroke-width="1.42936" stroke-miterlimit="10" stroke-linecap="round"/>
<path d="M121.368 322.269C121.368 322.269 125.075 337.462 120.06 348.676C115.044 359.89 109.615 367.402 115.377 378.66L161.317 345.247L149.624 311.6L121.368 322.269Z" fill="#FF2633"/>
<path d="M123.751 344.277L135.314 341.83" stroke="white" stroke-width="1.49021" stroke-miterlimit="10" stroke-linecap="round"/>
<path d="M85.8923 86.7396C85.8923 86.7396 82.9203 71.7637 88.1502 66.4966C93.3802 61.2295 101.893 58.9205 106.298 59.7876C109.293 60.3857 113.183 61.7535 113.716 69.5984C114.249 77.4434 113.071 80.063 113.071 80.063C113.071 80.063 110.127 90.4163 104.48 91.4086C98.8327 92.4008 87.8396 92.3729 85.8923 86.7396Z" fill="#F3ABAA"/>
<path d="M106.196 60.4457C106.196 60.4457 106.53 64.2198 106.933 70.1313" stroke="#FF2633" stroke-width="0.844939" stroke-miterlimit="10" stroke-linecap="round"/>
<path d="M98.9868 61.8272C98.9868 61.8272 99.6313 67.2009 100.661 73.1449C101.393 77.3456 105.617 78.6345 107.356 75.0876" stroke="#FF2633" stroke-width="0.844939" stroke-miterlimit="10" stroke-linecap="round"/>
<path d="M93.084 65.0223C93.084 65.0223 94.0113 72.2877 94.3173 74.2953C94.6233 76.3029 95.8983 77.7309 97.2986 77.7309C99.4777 77.7309 100.373 76.7387 100.892 75.0881" stroke="#FF2633" stroke-width="0.844939" stroke-miterlimit="10" stroke-linecap="round"/>
<path d="M94.3264 75.7551C94.3264 75.7551 93.2693 77.7766 92.2121 78.1476C91.155 78.5185 89.0361 78.6112 88.4102 77.1461C87.8816 75.9081 87.5664 74.29 87.673 71.8094" stroke="#FF2633" stroke-width="0.844939" stroke-miterlimit="10" stroke-linecap="round"/>
<path d="M103.66 82.5666C103.66 82.5666 100.206 78.9733 101.759 74.0818C103.313 69.1903 105.557 71.7635 105.557 71.7635C105.557 71.7635 110.42 76.2795 111.691 77.9811C112.692 79.3257 114.278 83.0812 112.725 85.2326C111.452 86.9557 109.835 88.3956 107.977 89.4611C107.356 89.781 105.626 91.0885 102.877 89.8088C102.645 89.6975 99.0842 87.1289 103.66 82.5666Z" fill="#F3ABAA"/>
<path d="M172.6 213.974C172.6 213.974 182.133 202.156 184.247 189.864L111.491 176.363L72.1274 199.263C62.0708 204.386 50.5816 219.478 55.9321 244.116C60.703 266.093 65.9006 296.282 65.9516 296.606C72.341 300.046 79.7165 301.191 86.8483 299.852C92.6804 298.675 98.1634 296.172 102.872 292.535C102.705 291.511 94.786 258.443 91.6146 240.898C90.5529 235.024 90.641 230.04 95.9034 227.216C95.9034 227.216 107.727 221.778 111.491 219.839C113.286 218.912 116.364 217.058 119.452 215.147C111.107 225.617 108.83 229.372 107.397 231.774C102.705 239.656 96.6499 245.734 100.489 271.954C102.265 284.083 106.711 295.734 113.007 314.531C114.426 318.759 115.933 323.34 117.528 328.389C117.528 328.389 128.252 330.068 138.814 326.535C150.086 322.779 154.643 313.752 154.643 313.752C135.17 268.82 135.235 261.791 140.493 249.508C142.663 244.418 160.147 228 172.6 213.974Z" fill="#0D0F44"/>
<path d="M120.005 213.121L118.108 206.426" stroke="white" stroke-width="0.844939" stroke-miterlimit="10" stroke-linecap="round"/>
<path d="M115.614 322.404C115.614 322.404 133.585 326.576 147.698 313.617" stroke="white" stroke-width="0.844939" stroke-miterlimit="10" stroke-linecap="round"/>
<path d="M64.938 290.806C64.938 290.806 75.384 296.634 87.388 292.698" stroke="white" stroke-width="0.844939" stroke-miterlimit="10" stroke-linecap="round"/>
<path d="M204.93 128.932C197.21 108.67 177.083 95.3171 163.711 91.5939C157.092 89.0916 149.88 88.6076 142.986 90.203C124.44 91.7238 107.484 110.928 107.484 110.928C107.257 104.126 107.113 93.7731 107.072 90.4997C107.065 89.8096 106.799 89.1473 106.325 88.6451C104.651 86.8879 100.344 82.97 95.5731 83.545C92.3897 83.9567 89.3765 85.2206 86.8519 87.2032C86.0862 87.8041 85.5217 88.6241 85.2337 89.5539C68.5099 144.01 73.3643 156.537 81.1953 161.573C88.5906 166.33 94.4789 161.517 101.276 157.4C100.738 161.675 100.298 166.209 99.9917 171.054C99.9917 171.054 98.9392 180.485 106.988 184.616C124.018 193.347 139.091 201.688 183.12 192.628C183.12 192.628 184.608 189.308 186.416 183.712C189.217 184.298 192.114 184.244 194.89 183.554C197.667 182.865 200.253 181.557 202.454 179.729C211.268 174.059 213.656 151.831 204.93 128.932Z" fill="#225DD5"/>
<path d="M182.5 122.074C182.5 122.074 185.421 139.484 184.247 144.765" stroke="white" stroke-width="0.844939" stroke-miterlimit="10" stroke-linecap="round"/>
<path d="M123.846 104.201C123.846 104.201 111.091 113.209 102.222 153.041" stroke="white" stroke-width="0.844939" stroke-miterlimit="10" stroke-linecap="round"/>
<path d="M189.323 157.248C191.45 156.183 191.61 152.196 189.681 148.342C187.751 144.489 184.462 142.229 182.335 143.294C180.208 144.359 180.048 148.346 181.978 152.2C183.908 156.053 187.196 158.314 189.323 157.248Z" fill="#F3ABAA"/>
<path d="M170.513 35.0562C170.513 35.0562 176.541 38.7979 176.295 48.0987C176.295 48.0987 179.193 46.9906 181.237 48.1914C184.441 50.046 186.073 57.6916 181.604 66.0095C181.604 66.0095 177.004 79.7892 171 75.9919L153.196 55.2111L170.513 35.0562Z" fill="#0D0F44"/>
<path d="M152.681 70.1546C152.031 79.1587 145.768 92.5072 145.768 92.5072C145.768 92.5072 152.259 99.7633 169.298 95.6461C169.298 95.6461 169.97 86.8877 170.063 84.2264C170.476 72.7371 168.639 68.606 168.505 70.6182L152.681 70.1546Z" fill="#F3ABAA"/>
<path d="M149.413 83.5213C149.413 83.5213 161.468 86.3032 170.022 77.0997C169.999 76.7242 169.976 76.3671 169.948 76.024L151.55 76.5897C150.952 78.9543 150.187 81.3375 149.413 83.5213Z" fill="#0D0F44"/>
<path d="M158.611 80.7212C168.869 80.7212 177.185 72.4054 177.185 62.1474C177.185 51.8893 168.869 43.5735 158.611 43.5735C148.353 43.5735 140.038 51.8893 140.038 62.1474C140.038 72.4054 148.353 80.7212 158.611 80.7212Z" fill="#F3ABAA"/>
<path d="M176.764 66.5056C175.623 68.7173 174.408 68.4993 174.061 67.7853C173.105 65.8009 173.889 64.0761 172.874 57.585C172.507 55.4527 171.381 53.5254 169.702 52.1603C164.727 47.8391 156.72 48.8916 156.567 48.9147C154.606 49.0214 152.709 49.689 150.961 50.1851C136.927 54.1725 136.468 45.2287 136.468 41.348C136.468 34.7827 141.651 29.4553 148.059 29.4553C150.077 29.4667 152.057 30.0075 153.801 31.0237C155.544 32.0399 156.99 33.496 157.995 35.2463C159.856 33.4612 162.334 32.4644 164.913 32.4644C170.537 32.4644 175.113 37.1473 175.113 42.9197C175.118 44.635 174.707 46.326 173.917 47.8483C176.448 49.5639 177.566 53.4585 177.932 54.97C178.706 58.146 178.145 63.8211 176.764 66.5056Z" fill="#0D0F44"/>
<path d="M161.797 59.8696C161.965 58.4274 161.528 57.1916 160.821 57.1093C160.114 57.0269 159.404 58.1293 159.237 59.5715C159.069 61.0136 159.506 62.2495 160.213 62.3318C160.92 62.4141 161.629 61.3117 161.797 59.8696Z" fill="#0D0F44"/>
<path d="M152.159 58.7432C152.327 57.301 151.89 56.0652 151.183 55.9828C150.476 55.9005 149.766 57.0029 149.598 58.4451C149.431 59.8872 149.868 61.1231 150.575 61.2054C151.282 61.2877 151.991 60.1853 152.159 58.7432Z" fill="#0D0F44"/>
<path d="M160.525 71.1973C160.525 71.1973 163.91 72.5373 165.31 68.2809" stroke="#0D0F44" stroke-width="0.844939" stroke-miterlimit="10" stroke-linecap="round"/>
<path d="M178.63 70.2049C181.354 68.2213 182.473 65.1164 181.128 63.2699C179.784 61.4234 176.485 61.5346 173.761 63.5182C171.037 65.5018 169.919 68.6067 171.263 70.4532C172.608 72.2996 175.906 72.1885 178.63 70.2049Z" fill="#F3ABAA"/>
<path d="M174.059 67.7847L179.544 65.4387" stroke="#0D0F44" stroke-width="0.844939" stroke-miterlimit="10" stroke-linecap="round"/>
<path d="M155.639 59.7737L154.429 64.9481C154.394 65.0984 154.391 65.2543 154.419 65.406C154.448 65.5577 154.507 65.7017 154.595 65.8291C154.682 65.9564 154.795 66.0642 154.926 66.1456C155.057 66.227 155.203 66.2802 155.356 66.3019L156.599 66.5013" stroke="#0D0F44" stroke-width="0.844939" stroke-miterlimit="10" stroke-linecap="round"/>
<path d="M14.4222 122.398L20.7974 127.429C21.1358 127.698 21.5347 127.881 21.9596 127.962C22.3844 128.043 22.8226 128.019 23.2362 127.893L30.9931 125.496C31.4687 125.348 31.9764 125.336 32.4584 125.462C32.9404 125.587 33.3776 125.846 33.7203 126.207C34.063 126.569 34.2976 127.019 34.3974 127.507C34.4972 127.995 34.4583 128.501 34.285 128.968L31.466 136.582C31.3156 136.987 31.2662 137.423 31.3219 137.852C31.3776 138.281 31.5369 138.69 31.7859 139.044L36.4642 145.683C36.751 146.09 36.9184 146.568 36.9472 147.065C36.9761 147.562 36.8653 148.057 36.6275 148.494C36.3896 148.931 36.0342 149.293 35.6013 149.539C35.1685 149.784 34.6756 149.904 34.1784 149.884L26.0645 149.559C25.632 149.541 25.2016 149.629 24.8106 149.815C24.4196 150.001 24.0798 150.279 23.8204 150.626L18.9521 157.117C18.653 157.511 18.2501 157.815 17.7883 157.993C17.3265 158.171 16.8242 158.218 16.3376 158.127C15.851 158.036 15.3993 157.811 15.0332 157.478C14.667 157.145 14.4009 156.716 14.2646 156.24L12.053 148.405C11.9351 147.989 11.7184 147.607 11.4213 147.293C11.1242 146.979 10.7555 146.742 10.3467 146.601L2.67331 144C2.20184 143.84 1.7846 143.551 1.46886 143.166C1.15313 142.781 0.951506 142.315 0.88684 141.822C0.822175 141.328 0.897048 140.826 1.10298 140.373C1.30891 139.919 1.63767 139.533 2.05202 139.257L8.80741 134.75C9.16767 134.511 9.46409 134.187 9.67093 133.808C9.87778 133.428 9.9888 133.003 9.99435 132.571L10.0917 124.452C10.097 123.953 10.2427 123.465 10.512 123.044C10.7814 122.623 11.1636 122.286 11.6151 122.072C12.0665 121.858 12.5691 121.775 13.0654 121.833C13.5618 121.89 14.0319 122.086 14.4222 122.398Z" fill="#FFD550"/>
<path d="M169.716 193.097L113.906 184.065C111.797 183.724 109.896 182.594 108.589 180.904C107.281 179.214 106.664 177.091 106.863 174.963L110.503 136.017C110.897 131.844 114.546 129.192 118.742 129.006C127.463 128.626 137.399 128.315 149.264 129.391C160.684 130.43 169.289 131.742 175.91 132.868C183.695 134.19 186.546 138.622 185.976 144.696L182.364 183.309C182.225 184.802 181.781 186.251 181.059 187.566C180.336 188.88 179.352 190.032 178.166 190.95C176.979 191.867 175.617 192.532 174.164 192.901C172.71 193.27 171.196 193.337 169.716 193.097Z" fill="white"/>
<path d="M136.102 176.224L132.467 171.509L126.931 172.942C128.918 167.578 131.487 162.447 134.59 157.641L142.695 163.029C140.036 167.181 137.826 171.605 136.102 176.224ZM142.695 163.029L138.642 160.326L142.695 163.024V163.029Z" fill="#FF2633"/>
<path d="M147.581 176.92C145.727 169.543 145.152 161.179 145.128 160.827L154.865 160.187C154.865 160.266 155.398 168.036 157.04 174.537L151.476 172.492L147.581 176.92Z" fill="#FF2633"/>
<path d="M134.595 157.627C134.516 157.738 133.737 158.916 132.643 160.812C134.546 163.584 137.34 165.621 140.562 166.585C141.749 164.461 142.639 163.107 142.695 163.029L138.642 160.33L134.595 157.627Z" fill="#0D0F44"/>
<path d="M154.846 160.187L145.109 160.827C145.109 161.021 145.304 163.678 145.777 167.267C149.222 167.154 152.527 165.872 155.147 163.632C154.939 161.587 154.846 160.219 154.846 160.187Z" fill="#0D0F44"/>
<path d="M159.92 151.885C160.234 144.333 153.902 137.936 145.776 137.598C137.65 137.261 130.809 143.11 130.495 150.662C130.181 158.215 136.513 164.611 144.639 164.949C152.765 165.287 159.606 159.438 159.92 151.885Z" fill="#FF2633"/>
<path d="M146.664 145.159L147.656 148.053C147.71 148.206 147.801 148.344 147.919 148.455C148.038 148.566 148.181 148.648 148.338 148.692L151.286 149.508C151.467 149.559 151.629 149.659 151.756 149.797C151.882 149.936 151.968 150.106 152.002 150.29C152.037 150.475 152.02 150.665 151.952 150.839C151.885 151.014 151.77 151.167 151.62 151.28L149.177 153.134C149.047 153.232 148.943 153.36 148.873 153.507C148.804 153.654 148.771 153.816 148.778 153.978L148.912 157.033C148.92 157.221 148.876 157.407 148.783 157.57C148.691 157.733 148.555 157.867 148.391 157.958C148.227 158.048 148.04 158.09 147.853 158.08C147.666 158.07 147.485 158.008 147.331 157.9L144.828 156.143C144.694 156.05 144.54 155.991 144.378 155.97C144.217 155.95 144.053 155.97 143.9 156.027L141.035 157.094C140.86 157.159 140.67 157.173 140.486 157.136C140.303 157.099 140.134 157.011 139.997 156.883C139.861 156.755 139.763 156.591 139.715 156.411C139.666 156.23 139.669 156.04 139.723 155.86L140.618 152.939C140.668 152.783 140.678 152.616 140.648 152.454C140.618 152.293 140.549 152.141 140.446 152.012L138.522 149.596C138.407 149.449 138.334 149.273 138.313 149.087C138.293 148.902 138.324 148.714 138.404 148.545C138.484 148.376 138.609 148.232 138.766 148.131C138.923 148.029 139.105 147.973 139.292 147.969L142.352 147.913C142.515 147.909 142.675 147.865 142.818 147.784C142.96 147.703 143.08 147.588 143.168 147.45L144.86 144.9C144.964 144.738 145.112 144.61 145.287 144.53C145.461 144.45 145.655 144.422 145.845 144.45C146.036 144.477 146.214 144.559 146.359 144.684C146.504 144.81 146.61 144.975 146.664 145.159Z" fill="#FFD550"/>
<path d="M120.496 132.215C120.496 132.215 114.162 131.547 113.611 137.102L113.036 142.665" stroke="#DADEEB" stroke-width="1.26741" stroke-miterlimit="10" stroke-linecap="round"/>
<path d="M168.724 135.108C168.724 135.108 176.143 135.697 180.39 138.609" stroke="#DADEEB" stroke-width="1.26741" stroke-miterlimit="10" stroke-linecap="round"/>
<path d="M173.76 154.325C173.76 154.325 175.266 147.528 183.07 150.046C190.873 152.564 193.683 157.738 193.655 160.177C193.655 161.308 194.397 182.237 188.151 183.967C185.481 184.709 174.242 183.893 171.998 174.202C169.754 164.512 173.76 154.325 173.76 154.325Z" fill="#F3ABAA"/>
<path d="M175.294 153.542C175.294 153.542 180.964 154.358 183.756 156.681" stroke="#FF2633" stroke-width="0.844939" stroke-miterlimit="10" stroke-linecap="round"/>
<path d="M173.823 159.444C173.823 159.444 179.493 160.26 182.284 162.583" stroke="#FF2633" stroke-width="0.844939" stroke-miterlimit="10" stroke-linecap="round"/>
<path d="M173.165 164.818C173.165 164.818 178.859 165.634 181.641 167.952" stroke="#FF2633" stroke-width="0.844939" stroke-miterlimit="10" stroke-linecap="round"/>
<path d="M173.165 171.314C173.165 171.314 177.686 171.314 180.477 173.632" stroke="#FF2633" stroke-width="0.844939" stroke-miterlimit="10" stroke-linecap="round"/>
<path d="M195.749 0.999756C198.799 2.74301 211.113 10.877 211.662 25.1442C211.662 27.3392 211.113 32.4973 206.723 33.3753L202.333 35.0215" stroke="white" stroke-linecap="round"/>
<path d="M204.344 22.949C205.004 19.746 206.491 16.7717 208.657 14.3219C210.823 11.8721 213.593 10.0322 216.692 8.9854C219.79 7.93859 223.108 7.7213 226.316 8.35515C229.524 8.98901 232.511 10.4519 234.978 12.5983C237.445 14.7447 239.307 17.4997 240.379 20.5893C241.451 23.6789 241.695 26.9953 241.087 30.2085C240.479 33.4217 239.041 36.4197 236.914 38.9042C234.788 41.3888 232.048 43.2732 228.967 44.3699C228.272 44.623 227.654 45.051 227.172 45.6128C226.691 46.1745 226.362 46.8509 226.219 47.5767L225.76 49.7252C225.556 50.7116 225.16 51.6481 224.594 52.4813C224.028 53.3144 223.303 54.0279 222.461 54.5809C221.619 55.134 220.677 55.5157 219.687 55.7044C218.698 55.8931 217.681 55.885 216.695 55.6805C215.708 55.4765 214.772 55.0801 213.938 54.514C213.105 53.9479 212.392 53.2232 211.839 52.3813C211.286 51.5394 210.904 50.5968 210.715 49.6074C210.527 48.6179 210.535 47.601 210.739 46.6147L211.197 44.4845C211.351 43.7656 211.318 43.0194 211.101 42.317C210.885 41.6145 210.492 40.9792 209.96 40.4715C207.593 38.283 205.831 35.5194 204.847 32.449C203.863 29.3787 203.69 26.1061 204.344 22.949Z" fill="#FFD550"/>
<path d="M222.238 45.4877L211.29 43.2247" stroke="#FF2633" stroke-width="2.29052" stroke-miterlimit="10" stroke-linecap="round"/>
<path d="M220.722 11.8812C220.722 11.8812 212.975 13.0448 210.735 19.8522" stroke="white" stroke-width="1.83242" stroke-miterlimit="10" stroke-linecap="round"/>
<path d="M243.539 14.726C243.539 14.726 249.77 21.7488 246.338 32.3356" stroke="#FF2633" stroke-width="2.29052" stroke-miterlimit="10" stroke-linecap="round"/>
<path d="M249.5 9.93427C249.5 9.93427 258.662 20.2737 253.623 35.863" stroke="#FF2633" stroke-width="2.29052" stroke-miterlimit="10" stroke-linecap="round"/>
</svg>
