<svg width="20" height="21" viewBox="0 0 20 21" fill="none" xmlns="http://www.w3.org/2000/svg">
<path d="M10.0167 17.6081C8.07505 17.6081 6.13339 17.2998 4.29172 16.6831C3.59172 16.4414 3.05839 15.9498 2.82505 15.3081C2.58339 14.6664 2.66672 13.9581 3.05005 13.3248L4.00839 11.7331C4.20839 11.3998 4.39172 10.7331 4.39172 10.3414V7.93311C4.39172 4.83311 6.91672 2.30811 10.0167 2.30811C13.1167 2.30811 15.6417 4.83311 15.6417 7.93311V10.3414C15.6417 10.7248 15.8251 11.3998 16.0251 11.7414L16.9751 13.3248C17.3334 13.9248 17.4001 14.6498 17.1584 15.3081C16.9167 15.9664 16.3917 16.4664 15.7334 16.6831C13.9001 17.2998 11.9584 17.6081 10.0167 17.6081ZM10.0167 3.55811C7.60839 3.55811 5.64172 5.51644 5.64172 7.93311V10.3414C5.64172 10.9498 5.39172 11.8498 5.08339 12.3748L4.12505 13.9664C3.94172 14.2748 3.89172 14.5998 4.00005 14.8748C4.10005 15.1581 4.35005 15.3748 4.69172 15.4914C8.17505 16.6581 11.8667 16.6581 15.3501 15.4914C15.6501 15.3914 15.8834 15.1664 15.9917 14.8664C16.1001 14.5664 16.0751 14.2414 15.9084 13.9664L14.9501 12.3748C14.6334 11.8331 14.3917 10.9414 14.3917 10.3331V7.93311C14.3917 5.51644 12.4334 3.55811 10.0167 3.55811Z" fill="black"/>
<path d="M11.5666 3.7834C11.5083 3.7834 11.4499 3.77507 11.3916 3.7584C11.1499 3.69173 10.9166 3.64173 10.6916 3.6084C9.98327 3.51673 9.29993 3.56673 8.65827 3.7584C8.42493 3.8334 8.17493 3.7584 8.0166 3.5834C7.85827 3.4084 7.80827 3.1584 7.89993 2.9334C8.2416 2.0584 9.07493 1.4834 10.0249 1.4834C10.9749 1.4834 11.8083 2.05007 12.1499 2.9334C12.2333 3.1584 12.1916 3.4084 12.0333 3.5834C11.9083 3.71673 11.7333 3.7834 11.5666 3.7834Z" fill="black"/>
<path d="M10.0166 19.5083C9.1916 19.5083 8.3916 19.175 7.80827 18.5916C7.22493 18.0083 6.8916 17.2083 6.8916 16.3833H8.1416C8.1416 16.875 8.3416 17.3583 8.6916 17.7083C9.0416 18.0583 9.52494 18.2583 10.0166 18.2583C11.0499 18.2583 11.8916 17.4166 11.8916 16.3833H13.1416C13.1416 18.1083 11.7416 19.5083 10.0166 19.5083Z" fill="black"/>
</svg>
