<svg width="20" height="20" viewBox="0 0 20 20" fill="none" xmlns="http://www.w3.org/2000/svg">
<path d="M16.6417 1.4585H14.1917C13.1333 1.4585 12.5 2.09183 12.5 3.15016V5.60016C12.5 6.6585 13.1333 7.29183 14.1917 7.29183H16.6417C17.7 7.29183 18.3333 6.6585 18.3333 5.60016V3.15016C18.3333 2.09183 17.7 1.4585 16.6417 1.4585ZM16.825 4.21683C16.725 4.31683 16.5917 4.36683 16.4583 4.36683C16.325 4.36683 16.1917 4.31683 16.0917 4.21683L15.9417 4.06683V5.9335C15.9417 6.22516 15.7083 6.4585 15.4167 6.4585C15.125 6.4585 14.8917 6.22516 14.8917 5.9335V4.06683L14.7417 4.21683C14.5417 4.41683 14.2083 4.41683 14.0083 4.21683C13.8083 4.01683 13.8083 3.6835 14.0083 3.4835L15.05 2.44183C15.0917 2.40016 15.15 2.36683 15.2083 2.34183C15.225 2.3335 15.2417 2.3335 15.2583 2.32516C15.3 2.3085 15.3417 2.30016 15.3917 2.30016C15.4083 2.30016 15.425 2.30016 15.4417 2.30016C15.5 2.30016 15.55 2.3085 15.6083 2.3335C15.6167 2.3335 15.6167 2.3335 15.625 2.3335C15.6833 2.3585 15.7333 2.39183 15.775 2.4335C15.7833 2.44183 15.7833 2.44183 15.7917 2.44183L16.8333 3.4835C17.0333 3.6835 17.0333 4.01683 16.825 4.21683Z" fill="#2E6CE9"/>
<path d="M1.66675 9.54984V13.7165C1.66675 15.6248 3.20841 17.1665 5.11675 17.1665H14.8751C16.7834 17.1665 18.3334 15.6165 18.3334 13.7082V9.54984C18.3334 8.9915 17.8834 8.5415 17.3251 8.5415H2.67508C2.11675 8.5415 1.66675 8.9915 1.66675 9.54984ZM6.66675 14.3748H5.00008C4.65841 14.3748 4.37508 14.0915 4.37508 13.7498C4.37508 13.4082 4.65841 13.1248 5.00008 13.1248H6.66675C7.00841 13.1248 7.29175 13.4082 7.29175 13.7498C7.29175 14.0915 7.00841 14.3748 6.66675 14.3748ZM12.0834 14.3748H8.75008C8.40841 14.3748 8.12508 14.0915 8.12508 13.7498C8.12508 13.4082 8.40841 13.1248 8.75008 13.1248H12.0834C12.4251 13.1248 12.7084 13.4082 12.7084 13.7498C12.7084 14.0915 12.4251 14.3748 12.0834 14.3748Z" fill="#2E6CE9"/>
<path d="M11.2501 3.84183V6.2835C11.2501 6.84183 10.8001 7.29183 10.2417 7.29183H2.67508C2.10841 7.29183 1.66675 6.82516 1.66675 6.26683C1.67508 5.32516 2.05008 4.46683 2.67508 3.84183C3.30008 3.21683 4.16675 2.8335 5.11675 2.8335H10.2417C10.8001 2.8335 11.2501 3.2835 11.2501 3.84183Z" fill="#2E6CE9"/>
</svg>
