<svg width="20" height="20" viewBox="0 0 20 20" fill="none" xmlns="http://www.w3.org/2000/svg">
<path d="M4.16659 12.5C3.38325 12.5 2.65825 12.775 2.08325 13.2333C1.31659 13.8417 0.833252 14.7833 0.833252 15.8333C0.833252 16.4583 1.00825 17.05 1.31659 17.55C1.89159 18.5167 2.94992 19.1667 4.16659 19.1667C5.00825 19.1667 5.77492 18.8583 6.35825 18.3333C6.61659 18.1167 6.84159 17.85 7.01659 17.55C7.32492 17.05 7.49992 16.4583 7.49992 15.8333C7.49992 13.9917 6.00825 12.5 4.16659 12.5ZM5.89159 15.475L4.11659 17.1167C3.99992 17.225 3.84159 17.2833 3.69159 17.2833C3.53325 17.2833 3.37492 17.225 3.24992 17.1L2.42492 16.275C2.18325 16.0333 2.18325 15.6333 2.42492 15.3917C2.66659 15.15 3.06659 15.15 3.30825 15.3917L3.70825 15.7917L5.04159 14.5583C5.29159 14.325 5.69159 14.3417 5.92492 14.5917C6.15825 14.8417 6.14159 15.2417 5.89159 15.475Z" fill="#2E6CE9"/>
<path d="M12.3749 3.29183V6.4585H11.1249V3.29183C11.1249 3.06683 10.9249 2.9585 10.7916 2.9585C10.7499 2.9585 10.7083 2.96683 10.6666 2.9835L4.05825 5.47516C3.61659 5.64183 3.33325 6.0585 3.33325 6.5335V7.09183C2.57492 7.6585 2.08325 8.56683 2.08325 9.59183V6.5335C2.08325 5.54183 2.69159 4.6585 3.61659 4.3085L10.2333 1.8085C10.4166 1.74183 10.6083 1.7085 10.7916 1.7085C11.6249 1.7085 12.3749 2.3835 12.3749 3.29183Z" fill="#2E6CE9"/>
<path d="M17.9167 12.0832V12.9165C17.9167 13.1415 17.7417 13.3248 17.5083 13.3332H16.2917C15.85 13.3332 15.45 13.0082 15.4167 12.5748C15.3917 12.3165 15.4917 12.0748 15.6583 11.9082C15.8083 11.7498 16.0167 11.6665 16.2417 11.6665H17.5C17.7417 11.6748 17.9167 11.8582 17.9167 12.0832Z" fill="#2E6CE9"/>
<path d="M16.2333 10.7918H17.0833C17.5416 10.7918 17.9166 10.4168 17.9166 9.9585V9.59183C17.9166 7.86683 16.5083 6.4585 14.7833 6.4585H5.21659C4.50825 6.4585 3.85825 6.69183 3.33325 7.09183C2.57492 7.6585 2.08325 8.56683 2.08325 9.59183V11.0752C2.08325 11.3918 2.41659 11.5918 2.71659 11.4918C3.18325 11.3335 3.67492 11.2502 4.16659 11.2502C6.69159 11.2502 8.74992 13.3085 8.74992 15.8335C8.74992 16.4335 8.59159 17.0918 8.34159 17.6752C8.20825 17.9752 8.41658 18.3335 8.74158 18.3335H14.7833C16.5083 18.3335 17.9166 16.9252 17.9166 15.2002V15.0418C17.9166 14.5835 17.5416 14.2085 17.0833 14.2085H16.3583C15.5583 14.2085 14.7916 13.7168 14.5833 12.9418C14.4166 12.3085 14.6166 11.6918 15.0333 11.2918C15.3416 10.9752 15.7666 10.7918 16.2333 10.7918ZM11.6666 10.6252H7.49992C7.15825 10.6252 6.87492 10.3418 6.87492 10.0002C6.87492 9.6585 7.15825 9.37516 7.49992 9.37516H11.6666C12.0083 9.37516 12.2916 9.6585 12.2916 10.0002C12.2916 10.3418 12.0083 10.6252 11.6666 10.6252Z" fill="#2E6CE9"/>
</svg>
