<svg width="20" height="20" viewBox="0 0 20 20" fill="none" xmlns="http://www.w3.org/2000/svg">
<path d="M9.3751 6.7334V9.11673L8.53343 8.82507C8.10843 8.67507 7.8501 8.5334 7.8501 7.8084C7.8501 7.21673 8.29176 6.7334 8.83343 6.7334H9.3751Z" fill="#2E6CE9"/>
<path d="M12.15 12.1916C12.15 12.7833 11.7083 13.2666 11.1667 13.2666H10.625V10.8833L11.4667 11.175C11.8917 11.325 12.15 11.4666 12.15 12.1916Z" fill="#2E6CE9"/>
<path d="M13.4917 1.6665H6.50841C3.47508 1.6665 1.66675 3.47484 1.66675 6.50817V13.4915C1.66675 16.5248 3.47508 18.3332 6.50841 18.3332H13.4917C16.5251 18.3332 18.3334 16.5248 18.3334 13.4915V6.50817C18.3334 3.47484 16.5251 1.6665 13.4917 1.6665ZM11.8834 9.99984C12.5334 10.2248 13.4001 10.6998 13.4001 12.1915C13.4001 13.4748 12.4001 14.5165 11.1667 14.5165H10.6251V14.9998C10.6251 15.3415 10.3417 15.6248 10.0001 15.6248C9.65842 15.6248 9.37508 15.3415 9.37508 14.9998V14.5165H9.07508C7.70842 14.5165 6.60008 13.3582 6.60008 11.9415C6.60008 11.5998 6.87508 11.3165 7.22508 11.3165C7.56675 11.3165 7.85008 11.5998 7.85008 11.9415C7.85008 12.6748 8.40008 13.2665 9.07508 13.2665H9.37508V10.4415L8.11675 9.99984C7.46675 9.77484 6.60008 9.29984 6.60008 7.80817C6.60008 6.52484 7.60008 5.48317 8.83342 5.48317H9.37508V4.99984C9.37508 4.65817 9.65842 4.37484 10.0001 4.37484C10.3417 4.37484 10.6251 4.65817 10.6251 4.99984V5.48317H10.9251C12.2917 5.48317 13.4001 6.6415 13.4001 8.05817C13.4001 8.39984 13.1251 8.68317 12.7751 8.68317C12.4334 8.68317 12.1501 8.39984 12.1501 8.05817C12.1501 7.32484 11.6001 6.73317 10.9251 6.73317H10.6251V9.55817L11.8834 9.99984Z" fill="#2E6CE9"/>
</svg>
