<svg width="21" height="20" viewBox="0 0 21 20" fill="none" xmlns="http://www.w3.org/2000/svg">
<path d="M6.15841 1.6665H4.57508C2.75008 1.6665 1.79175 2.62484 1.79175 4.4415V6.02484C1.79175 7.8415 2.75008 8.79984 4.56675 8.79984H6.15008C7.96675 8.79984 8.92508 7.8415 8.92508 6.02484V4.4415C8.93342 2.62484 7.97508 1.6665 6.15841 1.6665Z" fill="#9399A7"/>
<path opacity="0.4" d="M15.6833 1.6665H14.1C12.2833 1.6665 11.325 2.62484 11.325 4.4415V6.02484C11.325 7.8415 12.2833 8.79984 14.1 8.79984H15.6833C17.5 8.79984 18.4583 7.8415 18.4583 6.02484V4.4415C18.4583 2.62484 17.5 1.6665 15.6833 1.6665Z" fill="#9399A7"/>
<path d="M15.6833 11.1919H14.1C12.2833 11.1919 11.325 12.1502 11.325 13.9669V15.5502C11.325 17.3669 12.2833 18.3252 14.1 18.3252H15.6833C17.5 18.3252 18.4583 17.3669 18.4583 15.5502V13.9669C18.4583 12.1502 17.5 11.1919 15.6833 11.1919Z" fill="#9399A7"/>
<path opacity="0.4" d="M6.15841 11.1919H4.57508C2.75008 11.1919 1.79175 12.1502 1.79175 13.9669V15.5502C1.79175 17.3752 2.75008 18.3336 4.56675 18.3336H6.15008C7.96675 18.3336 8.92508 17.3752 8.92508 15.5586V13.9752C8.93342 12.1502 7.97508 11.1919 6.15841 11.1919Z" fill="#9399A7"/>
</svg>
