<svg width="22" height="22" viewBox="0 0 22 22" fill="none" xmlns="http://www.w3.org/2000/svg">
<g id="tabler-icon-transition-bottom">
<path id="Vector" d="M19.25 16.5C19.25 17.2293 18.9603 17.9288 18.4445 18.4445C17.9288 18.9603 17.2293 19.25 16.5 19.25H5.5C4.77065 19.25 4.07118 18.9603 3.55546 18.4445C3.03973 17.9288 2.75 17.2293 2.75 16.5M11 8.25V15.5833M11 15.5833L8.25 12.8333M11 15.5833L13.75 12.8333M2.75 5.5C2.75 4.77065 3.03973 4.07118 3.55546 3.55546C4.07118 3.03973 4.77065 2.75 5.5 2.75H16.5C17.2293 2.75 17.9288 3.03973 18.4445 3.55546C18.9603 4.07118 19.25 4.77065 19.25 5.5C19.25 6.22935 18.9603 6.92882 18.4445 7.44454C17.9288 7.96027 17.2293 8.25 16.5 8.25H5.5C4.77065 8.25 4.07118 7.96027 3.55546 7.44454C3.03973 6.92882 2.75 6.22935 2.75 5.5Z" stroke="#303030" stroke-width="2" stroke-linecap="round" stroke-linejoin="round"/>
</g>
</svg>
