<svg width="21" height="20" viewBox="0 0 21 20" fill="none" xmlns="http://www.w3.org/2000/svg">
<path opacity="0.4" d="M14.1165 1.6665H7.13317C4.09984 1.6665 2.2915 3.47484 2.2915 6.50817V13.4832C2.2915 16.5248 4.09984 18.3332 7.13317 18.3332H14.1082C17.1415 18.3332 18.9498 16.5248 18.9498 13.4915V6.50817C18.9582 3.47484 17.1498 1.6665 14.1165 1.6665Z" fill="#9399A7"/>
<path d="M14.3084 6.50817V13.4915C14.3084 14.0248 13.875 14.4582 13.3417 14.4582C12.8 14.4582 12.3667 14.0248 12.3667 13.4915V6.50817C12.3667 5.97484 12.8 5.5415 13.3417 5.5415C13.875 5.5415 14.3084 5.97484 14.3084 6.50817Z" fill="#9399A7"/>
<path d="M8.88307 10.7748V13.4914C8.88307 14.0248 8.44974 14.4581 7.90807 14.4581C7.37474 14.4581 6.94141 14.0248 6.94141 13.4914V10.7748C6.94141 10.2414 7.37474 9.80811 7.90807 9.80811C8.44974 9.80811 8.88307 10.2414 8.88307 10.7748Z" fill="#9399A7"/>
</svg>
