<svg width="18" height="19" viewBox="0 0 18 19" fill="none" xmlns="http://www.w3.org/2000/svg">
<path d="M15.8023 4.4225C14.5948 4.3025 13.3873 4.2125 12.1723 4.145V4.1375L12.0073 3.1625C11.8948 2.4725 11.7298 1.4375 9.97475 1.4375H8.00975C6.26225 1.4375 6.09725 2.4275 5.97725 3.155L5.81975 4.115C5.12225 4.16 4.42475 4.205 3.72725 4.2725L2.19725 4.4225C1.88225 4.4525 1.65725 4.73 1.68725 5.0375C1.71725 5.345 1.98725 5.57 2.30225 5.54L3.83225 5.39C7.76225 5 11.7223 5.15 15.6973 5.5475C15.7198 5.5475 15.7348 5.5475 15.7573 5.5475C16.0423 5.5475 16.2898 5.33 16.3198 5.0375C16.3423 4.73 16.1173 4.4525 15.8023 4.4225Z" fill="#FF5100"/>
<path d="M14.4228 6.605C14.2428 6.4175 13.9953 6.3125 13.7403 6.3125H4.2603C4.0053 6.3125 3.7503 6.4175 3.5778 6.605C3.4053 6.7925 3.3078 7.0475 3.3228 7.31L3.7878 15.005C3.8703 16.145 3.9753 17.57 6.5928 17.57H11.4078C14.0253 17.57 14.1303 16.1525 14.2128 15.005L14.6778 7.3175C14.6928 7.0475 14.5953 6.7925 14.4228 6.605ZM10.2453 13.8125H7.7478C7.4403 13.8125 7.1853 13.5575 7.1853 13.25C7.1853 12.9425 7.4403 12.6875 7.7478 12.6875H10.2453C10.5528 12.6875 10.8078 12.9425 10.8078 13.25C10.8078 13.5575 10.5528 13.8125 10.2453 13.8125ZM10.8753 10.8125H7.1253C6.8178 10.8125 6.5628 10.5575 6.5628 10.25C6.5628 9.9425 6.8178 9.6875 7.1253 9.6875H10.8753C11.1828 9.6875 11.4378 9.9425 11.4378 10.25C11.4378 10.5575 11.1828 10.8125 10.8753 10.8125Z" fill="#FF5100"/>
</svg>
