<svg width="37" height="36" viewBox="0 0 37 36" fill="none" xmlns="http://www.w3.org/2000/svg">
<path opacity="0.4" d="M24.785 13.2901C24.2 13.2901 23.735 12.8251 23.735 12.2401V10.3201C23.735 8.85009 23.105 7.44009 22.025 6.45009C20.915 5.44509 19.49 4.98009 17.99 5.11509C15.47 5.35509 13.265 7.92009 13.265 10.5901V11.9401C13.265 12.5251 12.8 12.9901 12.215 12.9901C11.63 12.9901 11.165 12.5251 11.165 11.9401V10.5901C11.165 6.84009 14.195 3.37509 17.78 3.03009C19.865 2.83509 21.875 3.49509 23.42 4.90509C24.95 6.28509 25.82 8.26509 25.82 10.3201V12.2401C25.82 12.8251 25.355 13.2901 24.785 13.2901Z" fill="#F3F3F3"/>
<path d="M30.44 13.4401C29.18 12.0451 27.11 11.3701 24.08 11.3701H12.92C9.88998 11.3701 7.81998 12.0451 6.55998 13.4401C5.10498 15.0601 5.14998 17.2201 5.31498 18.7201L6.36498 27.0751C6.67999 30.0001 7.86498 33.0001 14.315 33.0001H22.685C29.135 33.0001 30.32 30.0001 30.635 27.0901L31.685 18.7051C31.85 17.2201 31.895 15.0601 30.44 13.4401ZM18.5 27.8701C15.365 27.8701 12.815 25.3201 12.815 22.1851C12.815 19.0501 15.365 16.5001 18.5 16.5001C21.635 16.5001 24.185 19.0501 24.185 22.1851C24.185 25.3201 21.635 27.8701 18.5 27.8701Z" fill="#F3F3F3"/>
<path opacity="0.4" d="M18.5 27.87C21.6397 27.87 24.185 25.3247 24.185 22.185C24.185 19.0453 21.6397 16.5 18.5 16.5C15.3603 16.5 12.815 19.0453 12.815 22.185C12.815 25.3247 15.3603 27.87 18.5 27.87Z" fill="#F3F3F3"/>
<path d="M17.645 24.9599C17.36 24.9599 17.075 24.8549 16.85 24.6299L15.365 23.1449C14.93 22.7099 14.93 21.9899 15.365 21.5549C15.8 21.1199 16.52 21.1199 16.955 21.5549L17.675 22.2749L20.075 20.0549C20.525 19.6349 21.245 19.6649 21.665 20.1149C22.085 20.5649 22.055 21.2849 21.605 21.7049L18.41 24.6599C18.185 24.8549 17.915 24.9599 17.645 24.9599Z" fill="#F3F3F3"/>
</svg>
