<svg width="105" height="105" viewBox="0 0 105 105" fill="none" xmlns="http://www.w3.org/2000/svg">
<g clip-path="url(#clip0_1364_33708)">
<path d="M94.474 19.2263H12.5667C11.4617 19.227 10.4021 19.6663 9.62074 20.4476C8.83937 21.229 8.4001 22.2886 8.39941 23.3936V98.5443C8.4001 99.6494 8.83937 100.709 9.62074 101.49C10.4021 102.272 11.4617 102.711 12.5667 102.712H94.474C95.5791 102.711 96.6388 102.272 97.4203 101.49C98.2017 100.709 98.6411 99.6494 98.6418 98.5443V23.3936C98.6411 22.2885 98.2017 21.2289 97.4203 20.4475C96.6388 19.6661 95.5791 19.2269 94.474 19.2263Z" fill="#C6C6C6"/>
<path d="M89.0822 76.5972H17.9598C15.6584 76.5972 13.7925 74.7313 13.7925 72.4299V6.03033C13.7925 3.72894 15.6584 1.86304 17.9598 1.86304H89.0822C91.3836 1.86304 93.2495 3.72894 93.2495 6.03033V72.4299C93.2495 74.7313 91.3836 76.5972 89.0822 76.5972Z" fill="#F9F9F9"/>
<path d="M15.1119 73.7489V7.34972C15.1119 5.04832 16.9778 3.18242 19.2792 3.18242H90.4016C91.2145 3.18242 91.9701 3.41867 92.6109 3.82103C91.8742 2.64623 90.5711 1.86304 89.0822 1.86304H17.9598C15.6584 1.86304 13.7925 3.72894 13.7925 6.03033V72.4299C13.7925 73.9193 14.5757 75.2219 15.7505 75.959C15.3481 75.3179 15.1119 74.5622 15.1119 73.7493V73.7489Z" fill="url(#paint0_linear_1364_33708)"/>
<path d="M80.3311 15.8923H26.7109V18.9481H80.3311V15.8923ZM80.3311 27.5602H26.7109V30.616H80.3311V27.5602ZM80.3311 39.2307H26.7109V42.2865H80.3311V39.2307ZM80.3311 50.8986H26.7109V53.9548H80.3311V50.8986Z" fill="white"/>
<path d="M33.1011 41.0354L46.5751 54.5098H33.1011V41.0354Z" fill="url(#paint1_linear_1364_33708)"/>
<path d="M98.642 55.6213V24.6192L93.2495 19.2263V55.6209H98.642V55.6213Z" fill="#C6C6C6"/>
<path d="M104.958 58.4256L99.1484 99.5528C98.8579 101.609 97.0983 103.137 95.0219 103.137H12.0194C9.94311 103.137 8.1835 101.609 7.89303 99.5528L0.0417006 43.9799C-0.312459 41.4711 1.63434 39.2295 4.16811 39.2295H29.801C31.8774 39.2295 33.637 40.7576 33.9274 42.8133L34.9564 50.091C35.2468 52.1471 37.0064 53.6752 39.0828 53.6752H100.833C103.366 53.6752 105.313 55.9167 104.959 58.4256H104.958Z" fill="url(#paint2_linear_1364_33708)"/>
<path d="M84.3733 84.7927H22.669C22.3308 84.7926 22.0042 84.6692 21.7505 84.4455C21.4967 84.2219 21.3332 83.9134 21.2906 83.5779L20.5186 77.4655C20.4941 77.27 20.5114 77.0715 20.5695 76.8832C20.6275 76.6948 20.7249 76.521 20.8553 76.3732C20.9856 76.2254 21.1459 76.107 21.3255 76.0259C21.5051 75.9447 21.6999 75.9027 21.897 75.9026H85.1453C85.3423 75.9027 85.5371 75.9447 85.7167 76.0259C85.8963 76.107 86.0566 76.2254 86.1869 76.3732C86.3173 76.521 86.4147 76.6948 86.4728 76.8832C86.5308 77.0715 86.5481 77.27 86.5236 77.4655L85.7516 83.5779C85.709 83.9134 85.5455 84.2219 85.2918 84.4455C85.038 84.6692 84.7115 84.7926 84.3733 84.7927Z" fill="#D5D5D5"/>
</g>
<defs>
<linearGradient id="paint0_linear_1364_33708" x1="55.9646" y1="41.6692" x2="3.26235" y2="-11.0335" gradientUnits="userSpaceOnUse">
<stop stop-color="white"/>
</linearGradient>
<linearGradient id="paint1_linear_1364_33708" x1="42.0033" y1="56.6718" x2="25.7167" y2="40.3856" gradientUnits="userSpaceOnUse">
<stop stop-color="#C2CECE" stop-opacity="0"/>
<stop offset="0.179" stop-color="#AFBCBC" stop-opacity="0.179"/>
<stop offset="1" stop-color="#5B6A6A"/>
</linearGradient>
<linearGradient id="paint2_linear_1364_33708" x1="52.5" y1="39.2295" x2="52.5" y2="103.137" gradientUnits="userSpaceOnUse">
<stop stop-color="#EEF0F4"/>
<stop offset="0.927" stop-color="#E4E4E4"/>
</linearGradient>
<clipPath id="clip0_1364_33708">
<rect width="105" height="105" fill="white"/>
</clipPath>
</defs>
</svg>
