<svg width="375" height="812" viewBox="0 0 375 812" fill="none" xmlns="http://www.w3.org/2000/svg">
<g clip-path="url(#clip0_1676_26976)">
<rect width="375" height="812" fill="url(#paint0_linear_1676_26976)"/>
<circle cx="18.5" cy="405.5" r="327.5" transform="rotate(-90 18.5 405.5)" stroke="url(#paint1_linear_1676_26976)" stroke-opacity="0.5" stroke-width="4"/>
<path opacity="0.4" d="M135.25 413C142.015 413 147.5 407.515 147.5 400.75C147.5 393.985 142.015 388.5 135.25 388.5C128.485 388.5 123 393.985 123 400.75C123 407.515 128.485 413 135.25 413Z" fill="white"/>
<path d="M124.75 423.5C131.515 423.5 137 418.015 137 411.25C137 404.485 131.515 399 124.75 399C117.985 399 112.5 404.485 112.5 411.25C112.5 418.015 117.985 423.5 124.75 423.5Z" fill="white"/>
<path d="M172.518 410.424C172.602 411.894 173.19 413.07 174.282 413.952C175.374 414.834 176.802 415.254 178.608 415.254C180.078 415.254 181.296 414.96 182.22 414.33C183.144 413.7 183.648 412.818 183.648 411.684C183.648 410.928 183.354 410.298 182.85 409.836C182.346 409.374 181.59 408.996 180.666 408.744C179.742 408.492 178.272 408.156 176.34 407.736C174.408 407.4 172.77 406.938 171.468 406.35C170.124 405.762 169.074 404.922 168.234 403.788C167.394 402.654 167.016 401.142 167.016 399.252C167.016 397.572 167.478 396.018 168.402 394.674C169.326 393.33 170.628 392.28 172.308 391.524C173.988 390.768 175.878 390.348 177.978 390.348C180.12 390.348 182.052 390.768 183.774 391.566C185.496 392.364 186.84 393.456 187.848 394.842C188.856 396.27 189.36 397.824 189.402 399.588H183.228C183.06 398.328 182.556 397.32 181.632 396.564C180.708 395.808 179.49 395.388 177.978 395.388C176.55 395.388 175.458 395.682 174.618 396.27C173.778 396.858 173.358 397.698 173.358 398.79C173.358 399.588 173.61 400.218 174.114 400.638C174.618 401.058 175.332 401.436 176.256 401.688C177.18 401.94 178.608 402.276 180.54 402.612C182.472 402.99 184.152 403.452 185.496 403.998C186.84 404.544 187.89 405.384 188.73 406.476C189.57 407.568 189.99 409.038 189.99 410.886C189.99 412.692 189.486 414.288 188.52 415.716C187.512 417.144 186.168 418.236 184.404 419.034C182.64 419.874 180.708 420.252 178.524 420.252C176.172 420.252 174.072 419.832 172.224 418.992C170.376 418.152 168.948 416.934 167.94 415.422C166.89 413.91 166.344 412.23 166.344 410.34L172.518 410.424ZM198.411 390.39C199.041 391.02 199.377 391.818 199.377 392.742C199.377 393.708 199.041 394.506 198.411 395.136C197.739 395.808 196.941 396.102 195.975 396.102C194.967 396.102 194.169 395.808 193.497 395.136C192.825 394.506 192.531 393.708 192.531 392.742C192.531 391.818 192.825 391.02 193.497 390.39C194.169 389.76 194.967 389.424 195.975 389.424C196.941 389.424 197.739 389.76 198.411 390.39ZM192.993 398.412H198.915V420H192.993V398.412ZM215.873 398.412V403.788H213.521C211.841 403.788 210.581 404.292 209.825 405.3C209.027 406.308 208.649 407.694 208.649 409.416V420H202.727V398.412H208.103L208.649 401.646C209.279 400.596 210.077 399.798 211.043 399.252C211.967 398.706 213.269 398.412 214.865 398.412H215.873ZM239.094 398.412V428.4H233.172V417.228C231.534 419.244 229.35 420.252 226.662 420.252C224.73 420.252 223.008 419.832 221.496 418.95C219.984 418.068 218.766 416.808 217.926 415.128C217.086 413.448 216.666 411.516 216.666 409.248C216.666 407.064 217.086 405.132 217.926 403.452C218.766 401.772 219.984 400.47 221.496 399.546C223.008 398.622 224.688 398.16 226.62 398.16C228.09 398.16 229.392 398.454 230.526 399C231.66 399.588 232.584 400.344 233.34 401.31L233.928 398.412H239.094ZM231.828 413.7C232.752 412.566 233.256 411.054 233.256 409.206C233.256 407.358 232.752 405.846 231.828 404.712C230.862 403.578 229.602 402.99 228.006 402.99C226.41 402.99 225.108 403.578 224.142 404.712C223.176 405.846 222.714 407.316 222.714 409.164C222.714 411.054 223.176 412.566 224.142 413.7C225.108 414.876 226.41 415.422 228.006 415.422C229.602 415.422 230.862 414.876 231.828 413.7ZM263.235 398.412V420H257.985L257.439 417.396C256.683 418.32 255.801 418.992 254.793 419.496C253.785 420 252.525 420.252 251.097 420.252C248.577 420.252 246.519 419.496 244.923 417.942C243.327 416.388 242.529 413.784 242.529 410.13V398.412H248.451V409.416C248.451 411.39 248.787 412.86 249.459 413.868C250.131 414.876 251.223 415.338 252.651 415.338C254.121 415.338 255.255 414.792 256.095 413.7C256.893 412.608 257.313 411.054 257.313 409.038V398.412H263.235Z" fill="white"/>
</g>
<defs>
<linearGradient id="paint0_linear_1676_26976" x1="187.5" y1="0" x2="187.5" y2="812" gradientUnits="userSpaceOnUse">
<stop stop-color="#2EB5E9"/>
<stop offset="1" stop-color="#2E78E9"/>
</linearGradient>
<linearGradient id="paint1_linear_1676_26976" x1="18.5" y1="76" x2="18.5" y2="735" gradientUnits="userSpaceOnUse">
<stop stop-color="#2E6CE9"/>
<stop offset="1" stop-color="#D8ECFF"/>
</linearGradient>
<clipPath id="clip0_1676_26976">
<rect width="375" height="812" fill="white"/>
</clipPath>
</defs>
</svg>
