<svg width="345" height="82" viewBox="0 0 345 82" fill="none" xmlns="http://www.w3.org/2000/svg">
<g clip-path="url(#clip0_1309_20309)">
<rect width="345" height="82" fill="url(#paint0_linear_1309_20309)"/>
<path opacity="0.2" d="M-0.521385 -26C14.1765 -26 26.9379 -20.8912 37.7628 -10.6737C48.5876 -0.45623 54 12.244 54 27.4271C54 42.5146 48.8359 55.4058 38.5076 66.1008C28.1793 76.7003 15.4676 82 0.372414 82C-14.7228 82 -27.5834 76.748 -38.2097 66.244C-48.7365 55.7401 -54 43.2308 -54 28.7162C-54 20.7904 -52.5103 13.3899 -49.531 6.51458C-46.5517 -0.456232 -42.5793 -6.28116 -37.6138 -10.9602C-32.6483 -15.6393 -26.9379 -19.3157 -20.4828 -21.9894C-14.0276 -24.6631 -7.37379 -26 -0.521385 -26ZM-27.6331 28C-27.6331 36.4987 -24.8028 43.4217 -19.1421 48.7692C-13.3821 54.0212 -6.97655 56.6472 0.0744781 56.6472C7.12551 56.6472 13.4814 54.069 19.1421 48.9125C24.8028 43.756 27.6331 36.8329 27.6331 28.1432C27.6331 19.4536 24.7531 12.4828 18.9931 7.23076C13.3324 1.97878 6.97655 -0.647211 -0.074482 -0.647211C-7.12551 -0.647211 -13.4814 2.02653 -19.1421 7.37401C-24.8028 12.626 -27.6331 19.5013 -27.6331 28Z" fill="black" fill-opacity="0.4"/>
<path opacity="0.3" d="M344.479 0C359.177 0 371.938 5.10875 382.763 15.3263C393.588 25.5438 399 38.244 399 53.4271C399 68.5146 393.836 81.4058 383.508 92.1008C373.179 102.7 360.468 108 345.372 108C330.277 108 317.417 102.748 306.79 92.244C296.263 81.7401 291 69.2308 291 54.7162C291 46.7904 292.49 39.3899 295.469 32.5146C298.448 25.5438 302.421 19.7188 307.386 15.0398C312.352 10.3607 318.062 6.68435 324.517 4.01061C330.972 1.33687 337.626 0 344.479 0ZM317.367 54C317.367 62.4987 320.197 69.4217 325.858 74.7692C331.618 80.0212 338.023 82.6472 345.074 82.6472C352.126 82.6472 358.481 80.069 364.142 74.9125C369.803 69.756 372.633 62.8329 372.633 54.1432C372.633 45.4536 369.753 38.4828 363.993 33.2308C358.332 27.9788 351.977 25.3528 344.926 25.3528C337.874 25.3528 331.519 28.0265 325.858 33.374C320.197 38.626 317.367 45.5013 317.367 54Z" fill="black" fill-opacity="0.4"/>
</g>
<defs>
<linearGradient id="paint0_linear_1309_20309" x1="297" y1="93.5931" x2="174.228" y2="-96.3662" gradientUnits="userSpaceOnUse">
<stop stop-color="#2E6CE9"/>
<stop offset="1" stop-color="#2EC0E9"/>
</linearGradient>
<clipPath id="clip0_1309_20309">
<rect width="345" height="82" fill="white"/>
</clipPath>
</defs>
</svg>
