<svg width="16" height="16" viewBox="0 0 16 16" fill="none" xmlns="http://www.w3.org/2000/svg">
<path d="M4.6665 3.33301C4.6665 2.22634 5.55984 1.33301 6.6665 1.33301H9.33317C10.4398 1.33301 11.3332 2.22634 11.3332 3.33301C11.3332 3.69967 11.0332 3.99967 10.6665 3.99967H5.33317C4.9665 3.99967 4.6665 3.69967 4.6665 3.33301Z" fill="white"/>
<path d="M11.8332 10C11.8332 10.2733 11.6065 10.5 11.3332 10.5H10.6665V12.6667C10.6665 13.7733 9.77317 14.6667 8.6665 14.6667H7.33317C6.2265 14.6667 5.33317 13.7733 5.33317 12.6667V10.5H4.6665C4.39317 10.5 4.1665 10.2733 4.1665 10C4.1665 9.72667 4.39317 9.5 4.6665 9.5H11.3332C11.6065 9.5 11.8332 9.72667 11.8332 10Z" fill="white"/>
<path d="M12 4.66699H4C2.66667 4.66699 2 5.33366 2 6.66699V10.0003C2 11.3337 2.66667 12.0003 4 12.0003H4.25C4.48012 12.0003 4.66667 11.8138 4.66667 11.5837C4.66667 11.3535 4.4742 11.1739 4.25894 11.0926C3.81746 10.9258 3.5 10.4972 3.5 10.0003C3.5 9.36033 4.02667 8.83366 4.66667 8.83366H11.3333C11.9733 8.83366 12.5 9.36033 12.5 10.0003C12.5 10.4972 12.1825 10.9258 11.7411 11.0926C11.5258 11.1739 11.3333 11.3535 11.3333 11.5837C11.3333 11.8138 11.5199 12.0003 11.75 12.0003H12C13.3333 12.0003 14 11.3337 14 10.0003V6.66699C14 5.33366 13.3333 4.66699 12 4.66699ZM6.66667 7.83366H4.66667C4.39333 7.83366 4.16667 7.60699 4.16667 7.33366C4.16667 7.06033 4.39333 6.83366 4.66667 6.83366H6.66667C6.94 6.83366 7.16667 7.06033 7.16667 7.33366C7.16667 7.60699 6.94 7.83366 6.66667 7.83366Z" fill="white"/>
</svg>
