<svg width="16" height="16" viewBox="0 0 16 16" fill="none" xmlns="http://www.w3.org/2000/svg">
<path opacity="0.4" d="M4.48659 13.1335C5.03325 12.5468 5.86659 12.5935 6.34659 13.2335L7.01992 14.1335C7.55992 14.8468 8.43325 14.8468 8.97325 14.1335L9.64659 13.2335C10.1266 12.5935 10.9599 12.5468 11.5066 13.1335C12.6933 14.4002 13.6599 13.9802 13.6599 12.2068V4.6935C13.6666 2.00683 13.0399 1.3335 10.5199 1.3335H5.47992C2.95992 1.3335 2.33325 2.00683 2.33325 4.6935V12.2002C2.33325 13.9802 3.30659 14.3935 4.48659 13.1335Z" fill="#2E6CE9"/>
<path d="M9.99992 9.33333C9.62659 9.33333 9.33325 9.03333 9.33325 8.66667C9.33325 8.3 9.63325 8 9.99992 8C10.3666 8 10.6666 8.3 10.6666 8.66667C10.6666 9.03333 10.3733 9.33333 9.99992 9.33333Z" fill="#2E6CE9"/>
<path d="M5.99992 5.99984C5.62659 5.99984 5.33325 5.69984 5.33325 5.33317C5.33325 4.9665 5.63325 4.6665 5.99992 4.6665C6.36659 4.6665 6.66658 4.9665 6.66658 5.33317C6.66658 5.69984 6.37325 5.99984 5.99992 5.99984Z" fill="#2E6CE9"/>
<path d="M5.75322 9.69984C5.62655 9.69984 5.49988 9.65318 5.39988 9.55318C5.20655 9.35984 5.20655 9.03984 5.39988 8.84651L9.88655 4.35984C10.0799 4.16651 10.3999 4.16651 10.5932 4.35984C10.7865 4.55318 10.7865 4.87318 10.5932 5.06651L6.10655 9.55318C6.01322 9.65318 5.87988 9.69984 5.75322 9.69984Z" fill="#2E6CE9"/>
</svg>
