<svg width="20" height="20" viewBox="0 0 20 20" fill="none" xmlns="http://www.w3.org/2000/svg">
<path opacity="0.4" d="M17.8086 9.49163V14.4833C17.8086 16.7833 15.9419 18.65 13.6419 18.65H6.35856C4.05856 18.65 2.19189 16.7833 2.19189 14.4833V9.54997C2.82523 10.2333 3.72523 10.625 4.70023 10.625C5.75023 10.625 6.75856 10.1 7.39189 9.2583C7.95856 10.1 8.92523 10.625 10.0002 10.625C11.0669 10.625 12.0169 10.125 12.5919 9.29163C13.2336 10.1166 14.2252 10.625 15.2586 10.625C16.2669 10.625 17.1836 10.2166 17.8086 9.49163Z" fill="#AAAAAA"/>
<path d="M12.4916 1.0415H7.49162L6.87496 7.17484C6.82496 7.7415 6.90829 8.27484 7.11662 8.75817C7.59996 9.8915 8.73329 10.6248 9.99996 10.6248C11.2833 10.6248 12.3916 9.90817 12.8916 8.7665C13.0416 8.40817 13.1333 7.9915 13.1416 7.5665V7.40817L12.4916 1.0415Z" fill="#AAAAAA"/>
<path opacity="0.6" d="M18.6333 6.8915L18.3916 4.58317C18.0416 2.0665 16.9 1.0415 14.4583 1.0415H11.2583L11.875 7.2915C11.8833 7.37484 11.8916 7.4665 11.8916 7.62484C11.9416 8.05817 12.075 8.45817 12.275 8.8165C12.875 9.9165 14.0416 10.6248 15.2583 10.6248C16.3666 10.6248 17.3666 10.1332 17.9916 9.2665C18.4916 8.59984 18.7166 7.75817 18.6333 6.8915Z" fill="#AAAAAA"/>
<path opacity="0.6" d="M5.49186 1.0415C3.04186 1.0415 1.90853 2.0665 1.5502 4.60817L1.3252 6.89984C1.24186 7.7915 1.48353 8.65817 2.00853 9.33317C2.64186 10.1582 3.61686 10.6248 4.7002 10.6248C5.91686 10.6248 7.08353 9.9165 7.6752 8.83317C7.89186 8.45817 8.03353 8.02484 8.0752 7.57484L8.7252 1.04984H5.49186V1.0415Z" fill="#AAAAAA"/>
<path d="M9.45843 13.8834C8.4001 13.9917 7.6001 14.8917 7.6001 15.9584V18.65H12.3918V16.25C12.4001 14.5084 11.3751 13.6834 9.45843 13.8834Z" fill="#AAAAAA"/>
</svg>
