<svg width="37" height="36" viewBox="0 0 37 36" fill="none" xmlns="http://www.w3.org/2000/svg">
<path opacity="0.4" d="M32.1352 32.25C32.1352 32.67 31.8052 33 31.3852 33H5.61523C5.19523 33 4.86523 32.67 4.86523 32.25C4.86523 26.04 10.9852 21 18.5002 21C20.0452 21 21.5452 21.21 22.9252 21.615C22.0402 22.665 21.5002 24.03 21.5002 25.5C21.5002 26.625 21.8152 27.69 22.3702 28.59C22.6702 29.1 23.0602 29.565 23.5102 29.955C24.5602 30.915 25.9552 31.5 27.5002 31.5C29.1802 31.5 30.6952 30.81 31.7752 29.7C32.0152 30.51 32.1352 31.365 32.1352 32.25Z" fill="#FF3E1D"/>
<path d="M33.3201 24.0596C33.1701 23.4746 32.9301 22.8896 32.6001 22.3646C32.3751 21.9746 32.0751 21.5996 31.7451 21.2546C30.6651 20.1746 29.2551 19.5897 27.8151 19.5147C26.1801 19.4097 24.5151 20.0096 23.2551 21.2546C22.0701 22.4396 21.4701 24.0147 21.5001 25.5897C21.5151 27.0897 22.1151 28.5897 23.2551 29.7447C24.0501 30.5397 25.0251 31.0647 26.0601 31.3047C26.6301 31.4547 27.2301 31.5146 27.8301 31.4696C29.2551 31.4096 30.6501 30.8397 31.7451 29.7447C33.2901 28.1997 33.8151 26.0246 33.3201 24.0596ZM29.9001 27.8996C29.4651 28.3346 28.7451 28.3346 28.3101 27.8996L27.4851 27.0747L26.6901 27.8697C26.2551 28.3047 25.5351 28.3047 25.1001 27.8697C24.6651 27.4197 24.6651 26.7147 25.1001 26.2797L25.8951 25.4847L25.1301 24.7347C24.6951 24.2847 24.6951 23.5796 25.1301 23.1296C25.5801 22.6946 26.2851 22.6946 26.7351 23.1296L27.4851 23.8947L28.2801 23.0997C28.7151 22.6647 29.4201 22.6647 29.8701 23.0997C30.3051 23.5347 30.3051 24.2547 29.8701 24.6897L29.0751 25.4847L29.9001 26.3096C30.3351 26.7446 30.3351 27.4646 29.9001 27.8996Z" fill="#FF3E1D"/>
<path d="M18.5 18C22.6421 18 26 14.6421 26 10.5C26 6.35786 22.6421 3 18.5 3C14.3579 3 11 6.35786 11 10.5C11 14.6421 14.3579 18 18.5 18Z" fill="#FF3E1D"/>
</svg>
