<svg width="20" height="20" viewBox="0 0 20 20" fill="none" xmlns="http://www.w3.org/2000/svg">
<path d="M10.0002 10.6253C7.3585 10.6253 5.2085 8.47533 5.2085 5.83366C5.2085 3.19199 7.3585 1.04199 10.0002 1.04199C12.6418 1.04199 14.7918 3.19199 14.7918 5.83366C14.7918 8.47533 12.6418 10.6253 10.0002 10.6253ZM10.0002 2.29199C8.05016 2.29199 6.4585 3.88366 6.4585 5.83366C6.4585 7.78366 8.05016 9.37533 10.0002 9.37533C11.9502 9.37533 13.5418 7.78366 13.5418 5.83366C13.5418 3.88366 11.9502 2.29199 10.0002 2.29199Z" fill="#292D32"/>
<path d="M2.8418 18.9583C2.50013 18.9583 2.2168 18.675 2.2168 18.3333C2.2168 14.775 5.70849 11.875 10.0002 11.875C10.8418 11.875 11.6668 11.9834 12.4668 12.2084C12.8002 12.3 12.9918 12.6417 12.9001 12.975C12.8085 13.3083 12.4668 13.5 12.1335 13.4084C11.4502 13.2167 10.7335 13.125 10.0002 13.125C6.40015 13.125 3.4668 15.4583 3.4668 18.3333C3.4668 18.675 3.18346 18.9583 2.8418 18.9583Z" fill="#292D32"/>
<path d="M14.9998 18.9587C14.0165 18.9587 13.0832 18.592 12.3582 17.9337C12.0665 17.6837 11.8082 17.3753 11.6082 17.0337C11.2415 16.4337 11.0415 15.7253 11.0415 15.0003C11.0415 13.9587 11.4415 12.9837 12.1582 12.242C12.9082 11.467 13.9165 11.042 14.9998 11.042C16.1332 11.042 17.2082 11.5253 17.9415 12.3587C18.5915 13.0837 18.9582 14.017 18.9582 15.0003C18.9582 15.317 18.9165 15.6337 18.8332 15.9337C18.7498 16.3087 18.5915 16.7003 18.3748 17.042C17.6832 18.2253 16.3832 18.9587 14.9998 18.9587ZM14.9998 12.292C14.2582 12.292 13.5748 12.5836 13.0582 13.1086C12.5665 13.617 12.2915 14.2837 12.2915 15.0003C12.2915 15.492 12.4248 15.9753 12.6831 16.392C12.8165 16.6253 12.9915 16.8336 13.1915 17.0086C13.6915 17.467 14.3332 17.717 14.9998 17.717C15.9415 17.717 16.8332 17.217 17.3165 16.4087C17.4582 16.1753 17.5665 15.9087 17.6249 15.6504C17.6832 15.4337 17.7082 15.2253 17.7082 15.0087C17.7082 14.342 17.4581 13.7003 17.0081 13.2003C16.5081 12.617 15.7748 12.292 14.9998 12.292Z" fill="#292D32"/>
<path d="M16.25 15.6084H13.7583C13.4166 15.6084 13.1333 15.3251 13.1333 14.9834C13.1333 14.6417 13.4166 14.3584 13.7583 14.3584H16.25C16.5916 14.3584 16.875 14.6417 16.875 14.9834C16.875 15.3251 16.5916 15.6084 16.25 15.6084Z" fill="#292D32"/>
</svg>
