<svg width="105" height="105" viewBox="0 0 105 105" fill="none" xmlns="http://www.w3.org/2000/svg">
<path d="M81.6667 87.5H46.6667V64.1667H40.8333V87.5H23.3333V64.1667H17.5V87.5C17.5 89.0471 18.1146 90.5308 19.2085 91.6248C20.3025 92.7188 21.7862 93.3334 23.3333 93.3334H81.6667C83.2138 93.3334 84.6975 92.7188 85.7915 91.6248C86.8854 90.5308 87.5 89.0471 87.5 87.5V64.1667H81.6667V87.5Z" fill="#D5D5D5"/>
<path d="M98.5544 38.7042L86.6544 14.9042C86.1714 13.9323 85.427 13.1144 84.5047 12.5425C83.5824 11.9706 82.5188 11.6673 81.4335 11.6667H23.5669C22.4816 11.6673 21.4181 11.9706 20.4958 12.5425C19.5734 13.1144 18.829 13.9323 18.346 14.9042L6.44604 38.7042C6.03974 39.5194 5.82997 40.4184 5.83354 41.3292V50.3125C5.83088 51.6755 6.30557 52.9964 7.17521 54.0459C8.46046 55.5192 10.0478 56.6985 11.8294 57.5038C13.611 58.309 15.5451 58.7213 17.5002 58.7125C20.6904 58.7175 23.7832 57.6144 26.2502 55.5917C28.7171 57.6155 31.8093 58.7216 35.0002 58.7216C38.1911 58.7216 41.2833 57.6155 43.7502 55.5917C46.2171 57.6155 49.3093 58.7216 52.5002 58.7216C55.6911 58.7216 58.7833 57.6155 61.2502 55.5917C63.7171 57.6155 66.8093 58.7216 70.0002 58.7216C73.1911 58.7216 76.2833 57.6155 78.7502 55.5917C81.504 57.8528 85.0272 58.9581 88.5791 58.6752C92.1309 58.3924 95.4348 56.7434 97.796 54.075C98.6762 53.0296 99.1613 51.7083 99.1669 50.3417V41.3292C99.1704 40.4184 98.9607 39.5194 98.5544 38.7042ZM43.7502 42V46.4334L41.3585 49.5834C40.6243 50.5841 39.6648 51.3978 38.5576 51.9587C37.4505 52.5196 36.2268 52.8119 34.9856 52.8119C33.7445 52.8119 32.5208 52.5196 31.4136 51.9587C30.3064 51.3978 29.3469 50.5841 28.6127 49.5834L26.2502 46.3167V42L33.8044 17.5H46.6669L43.7502 42ZM78.7502 46.3167L76.3877 49.5834C75.6535 50.5841 74.694 51.3978 73.5868 51.9587C72.4796 52.5196 71.2559 52.8119 70.0148 52.8119C68.7736 52.8119 67.5499 52.5196 66.4428 51.9587C65.3356 51.3978 64.3761 50.5841 63.6419 49.5834L61.2502 46.3167V42L58.3335 17.5H71.3127L78.7502 42V46.3167Z" fill="#D5D5D5"/>
</svg>
