<svg width="25" height="25" viewBox="0 0 25 25" fill="none" xmlns="http://www.w3.org/2000/svg">
<path opacity="0.4" d="M9.5 7.7V17.29C9.5 20.5 11.5 22.5 14.7 22.5H17.29C20.49 22.5 22.49 20.5 22.49 17.3V7.7C22.5 4.5 20.5 2.5 17.3 2.5H14.7C11.5 2.5 9.5 4.5 9.5 7.7Z" fill="#292D32"/>
<path d="M12.93 8.62002L16.28 11.97C16.57 12.26 16.57 12.74 16.28 13.03L12.93 16.38C12.64 16.67 12.16 16.67 11.87 16.38C11.58 16.09 11.58 15.61 11.87 15.32L13.94 13.25H3.25C2.84 13.25 2.5 12.91 2.5 12.5C2.5 12.09 2.84 11.75 3.25 11.75H13.94L11.87 9.68002C11.72 9.53002 11.65 9.34002 11.65 9.15002C11.65 8.96002 11.72 8.77002 11.87 8.62002C12.16 8.32002 12.63 8.32002 12.93 8.62002Z" fill="#292D32"/>
</svg>
