<svg width="12" height="12" viewBox="0 0 12 12" fill="none" xmlns="http://www.w3.org/2000/svg">
<path d="M11.1799 4.135L11.0349 2.75C10.8249 1.24 10.1399 0.625 8.67495 0.625H7.49495H6.75495H5.23495H4.49495H3.29495C1.82495 0.625 1.14495 1.24 0.929947 2.765L0.794947 4.14C0.744947 4.675 0.889947 5.195 1.20495 5.6C1.58495 6.095 2.16995 6.375 2.81995 6.375C3.44995 6.375 4.05495 6.06 4.43495 5.555C4.77495 6.06 5.35495 6.375 5.99995 6.375C6.64495 6.375 7.20995 6.075 7.55495 5.575C7.93995 6.07 8.53495 6.375 9.15495 6.375C9.81995 6.375 10.4199 6.08 10.7949 5.56C11.0949 5.16 11.2299 4.655 11.1799 4.135Z" fill="white"/>
<path d="M5.67506 8.33C5.04006 8.395 4.56006 8.935 4.56006 9.575V10.945C4.56006 11.08 4.67006 11.19 4.80506 11.19H7.19006C7.32506 11.19 7.43506 11.08 7.43506 10.945V9.75C7.44006 8.705 6.82506 8.21 5.67506 8.33Z" fill="white"/>
<path d="M10.6849 7.19998V8.68998C10.6849 10.07 9.56494 11.19 8.18494 11.19C8.04994 11.19 7.93994 11.08 7.93994 10.945V9.74998C7.93994 9.10998 7.74494 8.60998 7.36494 8.26998C7.02994 7.96498 6.57494 7.81498 6.00994 7.81498C5.88494 7.81498 5.75994 7.81998 5.62494 7.83498C4.73494 7.92498 4.05994 8.67498 4.05994 9.57498V10.945C4.05994 11.08 3.94994 11.19 3.81494 11.19C2.43494 11.19 1.31494 10.07 1.31494 8.68998V7.20998C1.31494 6.85998 1.65994 6.62498 1.98494 6.73998C2.11994 6.78498 2.25494 6.81998 2.39494 6.83998C2.45494 6.84998 2.51994 6.85998 2.57994 6.85998C2.65994 6.86998 2.73994 6.87498 2.81994 6.87498C3.39994 6.87498 3.96994 6.65998 4.41994 6.28998C4.84994 6.65998 5.40994 6.87498 5.99994 6.87498C6.59494 6.87498 7.14494 6.66998 7.57494 6.29998C8.02494 6.66498 8.58494 6.87498 9.15494 6.87498C9.24494 6.87498 9.33494 6.86998 9.41994 6.85998C9.47994 6.85498 9.53494 6.84998 9.58994 6.83998C9.74494 6.81998 9.88494 6.77498 10.0249 6.72998C10.3499 6.61998 10.6849 6.85998 10.6849 7.19998Z" fill="white"/>
</svg>
