<svg width="20" height="20" viewBox="0 0 20 20" fill="none" xmlns="http://www.w3.org/2000/svg">
<path d="M18.3334 7.70825H1.66669C1.32502 7.70825 1.04169 7.42492 1.04169 7.08325C1.04169 6.74159 1.32502 6.45825 1.66669 6.45825H18.3334C18.675 6.45825 18.9584 6.74159 18.9584 7.08325C18.9584 7.42492 18.675 7.70825 18.3334 7.70825Z" fill="#292D32"/>
<path d="M6.66667 14.375H5C4.65833 14.375 4.375 14.0917 4.375 13.75C4.375 13.4083 4.65833 13.125 5 13.125H6.66667C7.00833 13.125 7.29167 13.4083 7.29167 13.75C7.29167 14.0917 7.00833 14.375 6.66667 14.375Z" fill="#292D32"/>
<path d="M12.0833 14.375H8.75C8.40833 14.375 8.125 14.0917 8.125 13.75C8.125 13.4083 8.40833 13.125 8.75 13.125H12.0833C12.425 13.125 12.7083 13.4083 12.7083 13.75C12.7083 14.0917 12.425 14.375 12.0833 14.375Z" fill="#292D32"/>
<path d="M14.6334 17.7084H5.36669C2.05002 17.7084 1.04169 16.7084 1.04169 13.4251V6.57508C1.04169 3.29175 2.05002 2.29175 5.36669 2.29175H14.625C17.9417 2.29175 18.95 3.29175 18.95 6.57508V13.4167C18.9584 16.7084 17.95 17.7084 14.6334 17.7084ZM5.36669 3.54175C2.75002 3.54175 2.29169 3.99175 2.29169 6.57508V13.4167C2.29169 16.0001 2.75002 16.4501 5.36669 16.4501H14.625C17.2417 16.4501 17.7 16.0001 17.7 13.4167V6.57508C17.7 3.99175 17.2417 3.54175 14.625 3.54175H5.36669Z" fill="#292D32"/>
</svg>
