<svg width="20" height="20" viewBox="0 0 20 20" fill="none" xmlns="http://www.w3.org/2000/svg">
<path d="M14.7833 18.9583H5.21665C3.14165 18.9583 1.45831 17.2749 1.45831 15.1999V9.59159C1.45831 7.51659 3.14165 5.83325 5.21665 5.83325H14.7833C16.8583 5.83325 18.5416 7.51659 18.5416 9.59159V10.7916C18.5416 11.1333 18.2583 11.4166 17.9166 11.4166H16.2333C15.9416 11.4166 15.675 11.5249 15.4833 11.7249L15.475 11.7333C15.2416 11.9583 15.1333 12.2666 15.1583 12.5832C15.2083 13.1332 15.7333 13.5749 16.3333 13.5749H17.9166C18.2583 13.5749 18.5416 13.8582 18.5416 14.1999V15.1916C18.5416 17.2749 16.8583 18.9583 14.7833 18.9583ZM5.21665 7.08325C3.83331 7.08325 2.70831 8.20826 2.70831 9.59159V15.1999C2.70831 16.5832 3.83331 17.7083 5.21665 17.7083H14.7833C16.1666 17.7083 17.2916 16.5832 17.2916 15.1999V14.8332H16.3333C15.075 14.8332 14.0083 13.8999 13.9083 12.6999C13.8416 12.0166 14.0916 11.3416 14.5916 10.8499C15.025 10.4083 15.6083 10.1666 16.2333 10.1666H17.2916V9.59159C17.2916 8.20826 16.1666 7.08325 14.7833 7.08325H5.21665Z" fill="#292D32"/>
<path d="M2.08331 10.9668C1.74165 10.9668 1.45831 10.6834 1.45831 10.3418V6.53347C1.45831 5.2918 2.24165 4.16675 3.39998 3.72509L10.0166 1.22509C10.7 0.966752 11.4583 1.05846 12.05 1.47513C12.65 1.89179 13 2.56679 13 3.29179V6.45844C13 6.80011 12.7166 7.08344 12.375 7.08344C12.0333 7.08344 11.75 6.80011 11.75 6.45844V3.29179C11.75 2.97512 11.6 2.68344 11.3333 2.50011C11.0666 2.31678 10.75 2.27511 10.45 2.39177L3.83331 4.89177C3.15831 5.15011 2.69998 5.80847 2.69998 6.53347V10.3418C2.70831 10.6918 2.42498 10.9668 2.08331 10.9668Z" fill="#292D32"/>
<path d="M16.3333 14.8331C15.075 14.8331 14.0083 13.8998 13.9083 12.6998C13.8416 12.0082 14.0916 11.3332 14.5916 10.8415C15.0166 10.4082 15.6 10.1665 16.225 10.1665H17.9583C18.7833 10.1915 19.4166 10.8415 19.4166 11.6415V13.3582C19.4166 14.1582 18.7833 14.8081 17.9833 14.8331H16.3333ZM17.9416 11.4165H16.2333C15.9416 11.4165 15.675 11.5248 15.4833 11.7248C15.2416 11.9582 15.125 12.2748 15.1583 12.5915C15.2083 13.1415 15.7333 13.5831 16.3333 13.5831H17.9666C18.075 13.5831 18.175 13.4832 18.175 13.3582V11.6415C18.175 11.5165 18.075 11.4248 17.9416 11.4165Z" fill="#292D32"/>
<path d="M11.6666 10.625H5.83331C5.49165 10.625 5.20831 10.3417 5.20831 10C5.20831 9.65833 5.49165 9.375 5.83331 9.375H11.6666C12.0083 9.375 12.2916 9.65833 12.2916 10C12.2916 10.3417 12.0083 10.625 11.6666 10.625Z" fill="#292D32"/>
</svg>
