<svg width="17" height="16" viewBox="0 0 17 16" fill="none" xmlns="http://www.w3.org/2000/svg">
<path d="M8.17003 9.99333C8.04336 9.99333 7.91669 9.94666 7.81669 9.84666L6.11003 8.14C5.91669 7.94666 5.91669 7.62666 6.11003 7.43333C6.30336 7.24 6.62336 7.24 6.81669 7.43333L8.17003 8.78666L9.52336 7.43333C9.71669 7.24 10.0367 7.24 10.23 7.43333C10.4234 7.62666 10.4234 7.94666 10.23 8.14L8.52336 9.84666C8.42336 9.94666 8.29669 9.99333 8.17003 9.99333Z" fill="white"/>
<path d="M8.16998 9.94663C7.89665 9.94663 7.66998 9.71996 7.66998 9.44663V2.66663C7.66998 2.39329 7.89665 2.16663 8.16998 2.16663C8.44332 2.16663 8.66998 2.39329 8.66998 2.66663V9.44663C8.66998 9.71996 8.44332 9.94663 8.16998 9.94663Z" fill="white"/>
<path d="M8.25002 13.9533C4.81669 13.9533 2.41669 11.5533 2.41669 8.12C2.41669 7.84666 2.64335 7.62 2.91669 7.62C3.19002 7.62 3.41669 7.84666 3.41669 8.12C3.41669 10.9667 5.40335 12.9533 8.25002 12.9533C11.0967 12.9533 13.0834 10.9667 13.0834 8.12C13.0834 7.84666 13.31 7.62 13.5834 7.62C13.8567 7.62 14.0834 7.84666 14.0834 8.12C14.0834 11.5533 11.6834 13.9533 8.25002 13.9533Z" fill="white"/>
</svg>
