<svg width="17" height="16" viewBox="0 0 17 16" fill="none" xmlns="http://www.w3.org/2000/svg">
<path d="M13.8233 8.48672C13.5766 8.48672 13.37 8.30005 13.3433 8.05338C13.1833 6.58672 12.3966 5.26672 11.1833 4.42672C10.9633 4.27338 10.91 3.97338 11.0633 3.75338C11.2166 3.53338 11.5166 3.48005 11.7366 3.63338C13.1833 4.64005 14.1166 6.21338 14.31 7.95338C14.3366 8.22005 14.1433 8.46005 13.8766 8.48672C13.8566 8.48672 13.8433 8.48672 13.8233 8.48672Z" fill="white"/>
<path d="M2.74332 8.52001C2.72999 8.52001 2.70999 8.52001 2.69666 8.52001C2.42999 8.49335 2.23666 8.25335 2.26332 7.98668C2.44332 6.24668 3.36332 4.67335 4.79666 3.66001C5.00999 3.50668 5.31666 3.56001 5.46999 3.77335C5.62332 3.99335 5.56999 4.29335 5.35666 4.44668C4.15666 5.30001 3.37666 6.62001 3.22999 8.08001C3.20332 8.33335 2.98999 8.52001 2.74332 8.52001Z" fill="white"/>
<path d="M10.91 14.0667C10.09 14.46 9.21001 14.66 8.29001 14.66C7.33001 14.66 6.41667 14.4467 5.56334 14.0134C5.32334 13.9 5.23001 13.6067 5.35001 13.3667C5.46334 13.1267 5.75667 13.0334 5.99667 13.1467C6.41667 13.36 6.86334 13.5067 7.31667 13.5934C7.93001 13.7134 8.55667 13.72 9.17001 13.6134C9.62334 13.5334 10.07 13.3934 10.4833 13.1934C10.73 13.08 11.0233 13.1734 11.13 13.42C11.25 13.66 11.1567 13.9534 10.91 14.0667Z" fill="white"/>
<path d="M8.28332 1.33997C7.24999 1.33997 6.40332 2.17997 6.40332 3.21997C6.40332 4.25997 7.24332 5.09997 8.28332 5.09997C9.32332 5.09997 10.1633 4.25997 10.1633 3.21997C10.1633 2.17997 9.32332 1.33997 8.28332 1.33997Z" fill="white"/>
<path d="M3.61669 9.2467C2.58336 9.2467 1.73669 10.0867 1.73669 11.1267C1.73669 12.1667 2.57669 13.0067 3.61669 13.0067C4.65669 13.0067 5.49669 12.1667 5.49669 11.1267C5.49669 10.0867 4.65003 9.2467 3.61669 9.2467Z" fill="white"/>
<path d="M12.8834 9.2467C11.85 9.2467 11.0034 10.0867 11.0034 11.1267C11.0034 12.1667 11.8434 13.0067 12.8834 13.0067C13.9234 13.0067 14.7634 12.1667 14.7634 11.1267C14.7634 10.0867 13.9234 9.2467 12.8834 9.2467Z" fill="white"/>
</svg>
