<svg width="20" height="20" viewBox="0 0 20 20" fill="none" xmlns="http://www.w3.org/2000/svg">
<path d="M6.66699 18.5999C6.43366 18.5999 6.19198 18.5416 5.97531 18.425C5.50031 18.175 5.20866 17.6749 5.20866 17.1416V15.9583C2.69199 15.7 1.04199 13.8499 1.04199 11.1999V6.19999C1.04199 3.33333 2.96699 1.40833 5.83366 1.40833H14.167C17.0337 1.40833 18.9587 3.33333 18.9587 6.19999V11.1999C18.9587 14.0666 17.0337 15.9916 14.167 15.9916H11.0253L7.4753 18.3583C7.23363 18.5167 6.95033 18.5999 6.66699 18.5999ZM5.83366 2.64998C3.68366 2.64998 2.29199 4.04165 2.29199 6.19165V11.1917C2.29199 13.3417 3.68366 14.7334 5.83366 14.7334C6.17533 14.7334 6.45866 15.0167 6.45866 15.3584V17.1334C6.45866 17.2417 6.52533 17.2917 6.567 17.3167C6.60866 17.3417 6.692 17.3667 6.78367 17.3083L10.492 14.8417C10.592 14.775 10.717 14.7334 10.842 14.7334H14.1753C16.3253 14.7334 17.717 13.3417 17.717 11.1917V6.19165C17.717 4.04165 16.3253 2.64998 14.1753 2.64998H5.83366Z" fill="#2C3E50"/>
<path d="M9.99952 10.0917C9.65786 10.0917 9.37452 9.80834 9.37452 9.46668V9.29171C9.37452 8.32504 10.0828 7.85003 10.3495 7.6667C10.6578 7.45836 10.7578 7.3167 10.7578 7.10004C10.7578 6.68337 10.4162 6.34167 9.99952 6.34167C9.58286 6.34167 9.24121 6.68337 9.24121 7.10004C9.24121 7.4417 8.95788 7.72504 8.61621 7.72504C8.27454 7.72504 7.99121 7.4417 7.99121 7.10004C7.99121 5.9917 8.89119 5.09167 9.99952 5.09167C11.1079 5.09167 12.0078 5.9917 12.0078 7.10004C12.0078 8.05004 11.3079 8.52502 11.0495 8.70002C10.7245 8.91669 10.6245 9.05837 10.6245 9.29171V9.46668C10.6245 9.81668 10.3412 10.0917 9.99952 10.0917Z" fill="#2C3E50"/>
<path d="M10 12.1666C9.65 12.1666 9.375 11.8833 9.375 11.5416C9.375 11.2 9.65833 10.9166 10 10.9166C10.3417 10.9166 10.625 11.2 10.625 11.5416C10.625 11.8833 10.35 12.1666 10 12.1666Z" fill="#2C3E50"/>
</svg>
