<svg width="20" height="20" viewBox="0 0 20 20" fill="none" xmlns="http://www.w3.org/2000/svg">
<path d="M7.14147 13.35C6.98314 13.35 6.8248 13.2917 6.6998 13.1667C6.45814 12.925 6.45814 12.525 6.6998 12.2834L12.1581 6.82505C12.3998 6.58338 12.7998 6.58338 13.0415 6.82505C13.2831 7.06672 13.2831 7.46671 13.0415 7.70838L7.58314 13.1667C7.45814 13.2917 7.2998 13.35 7.14147 13.35Z" fill="#292D32"/>
<path d="M7.48302 9.25837C6.57468 9.25837 5.83301 8.51672 5.83301 7.60838C5.83301 6.70005 6.57468 5.95837 7.48302 5.95837C8.39135 5.95837 9.133 6.70005 9.133 7.60838C9.133 8.51672 8.39135 9.25837 7.48302 9.25837ZM7.48302 7.21672C7.26635 7.21672 7.08301 7.39172 7.08301 7.61672C7.08301 7.84172 7.25802 8.01671 7.48302 8.01671C7.70802 8.01671 7.883 7.84172 7.883 7.61672C7.883 7.39172 7.69968 7.21672 7.48302 7.21672Z" fill="#292D32"/>
<path d="M12.9332 14.0333C12.0249 14.0333 11.2832 13.2917 11.2832 12.3833C11.2832 11.475 12.0249 10.7333 12.9332 10.7333C13.8415 10.7333 14.5832 11.475 14.5832 12.3833C14.5832 13.2917 13.8415 14.0333 12.9332 14.0333ZM12.9332 11.9917C12.7165 11.9917 12.5332 12.1667 12.5332 12.3917C12.5332 12.6167 12.7082 12.7917 12.9332 12.7917C13.1582 12.7917 13.3332 12.6167 13.3332 12.3917C13.3332 12.1667 13.1582 11.9917 12.9332 11.9917Z" fill="#292D32"/>
<path d="M10.0003 18.9584C5.05866 18.9584 1.04199 14.9417 1.04199 10C1.04199 5.05835 5.05866 1.04169 10.0003 1.04169C14.942 1.04169 18.9587 5.05835 18.9587 10C18.9587 14.9417 14.942 18.9584 10.0003 18.9584ZM10.0003 2.29169C5.75033 2.29169 2.29199 5.75002 2.29199 10C2.29199 14.25 5.75033 17.7084 10.0003 17.7084C14.2503 17.7084 17.7087 14.25 17.7087 10C17.7087 5.75002 14.2503 2.29169 10.0003 2.29169Z" fill="#292D32"/>
</svg>
