<svg width="20" height="20" viewBox="0 0 20 20" fill="none" xmlns="http://www.w3.org/2000/svg">
<path d="M14.6836 8.01672H10.3086C9.96693 8.01672 9.68359 7.73339 9.68359 7.39172C9.68359 7.05006 9.96693 6.76672 10.3086 6.76672H14.6836C15.0253 6.76672 15.3086 7.05006 15.3086 7.39172C15.3086 7.73339 15.0336 8.01672 14.6836 8.01672Z" fill="#2C3E50"/>
<path d="M5.93346 8.65002C5.77513 8.65002 5.6168 8.59168 5.4918 8.46668L4.8668 7.84168C4.62513 7.60002 4.62513 7.20002 4.8668 6.95835C5.10846 6.71668 5.50846 6.71668 5.75013 6.95835L5.93346 7.14168L7.3668 5.70835C7.60846 5.46668 8.00846 5.46668 8.25013 5.70835C8.4918 5.95002 8.4918 6.35002 8.25013 6.59168L6.37513 8.46668C6.25846 8.58335 6.10013 8.65002 5.93346 8.65002Z" fill="#2C3E50"/>
<path d="M14.6836 13.85H10.3086C9.96693 13.85 9.68359 13.5666 9.68359 13.225C9.68359 12.8833 9.96693 12.6 10.3086 12.6H14.6836C15.0253 12.6 15.3086 12.8833 15.3086 13.225C15.3086 13.5666 15.0336 13.85 14.6836 13.85Z" fill="#2C3E50"/>
<path d="M5.93346 14.4834C5.77513 14.4834 5.6168 14.4251 5.4918 14.3001L4.8668 13.6751C4.62513 13.4334 4.62513 13.0334 4.8668 12.7917C5.10846 12.5501 5.50846 12.5501 5.75013 12.7917L5.93346 12.9751L7.3668 11.5417C7.60846 11.3001 8.00846 11.3001 8.25013 11.5417C8.4918 11.7834 8.4918 12.1834 8.25013 12.4251L6.37513 14.3001C6.25846 14.4167 6.10013 14.4834 5.93346 14.4834Z" fill="#2C3E50"/>
<path d="M12.5003 18.9583H7.50033C2.97533 18.9583 1.04199 17.025 1.04199 12.5V7.49996C1.04199 2.97496 2.97533 1.04163 7.50033 1.04163H12.5003C17.0253 1.04163 18.9587 2.97496 18.9587 7.49996V12.5C18.9587 17.025 17.0253 18.9583 12.5003 18.9583ZM7.50033 2.29163C3.65866 2.29163 2.29199 3.65829 2.29199 7.49996V12.5C2.29199 16.3416 3.65866 17.7083 7.50033 17.7083H12.5003C16.342 17.7083 17.7087 16.3416 17.7087 12.5V7.49996C17.7087 3.65829 16.342 2.29163 12.5003 2.29163H7.50033Z" fill="#2C3E50"/>
</svg>
