<svg width="20" height="20" viewBox="0 0 20 20" fill="none" xmlns="http://www.w3.org/2000/svg">
<path d="M14.167 17.2916H5.83366C2.15866 17.2916 1.04199 16.175 1.04199 12.5V12.0833C1.04199 11.7416 1.32533 11.4583 1.66699 11.4583C2.46699 11.4583 3.12533 10.8 3.12533 9.99998C3.12533 9.19998 2.46699 8.54165 1.66699 8.54165C1.32533 8.54165 1.04199 8.25831 1.04199 7.91665V7.49998C1.04199 3.82498 2.15866 2.70831 5.83366 2.70831H14.167C17.842 2.70831 18.9587 3.82498 18.9587 7.49998V8.33331C18.9587 8.67498 18.6753 8.95831 18.3337 8.95831C17.5337 8.95831 16.8753 9.61665 16.8753 10.4166C16.8753 11.2166 17.5337 11.875 18.3337 11.875C18.6753 11.875 18.9587 12.1583 18.9587 12.5C18.9587 16.175 17.842 17.2916 14.167 17.2916ZM2.29199 12.6333C2.30866 15.5 2.90033 16.0416 5.83366 16.0416H14.167C16.9503 16.0416 17.6253 15.55 17.7003 13.05C16.5087 12.7666 15.6253 11.6916 15.6253 10.4166C15.6253 9.14165 16.517 8.06665 17.7087 7.78331V7.49998C17.7087 4.52498 17.142 3.95831 14.167 3.95831H5.83366C2.90033 3.95831 2.30866 4.49998 2.29199 7.36665C3.48366 7.64998 4.37533 8.72498 4.37533 9.99998C4.37533 11.275 3.48366 12.35 2.29199 12.6333Z" fill="#292D32"/>
<path d="M12.4999 13.2333C12.0332 13.2333 11.6582 12.8583 11.6582 12.4C11.6582 11.9417 12.0332 11.5667 12.4915 11.5667C12.9499 11.5667 13.3249 11.9417 13.3249 12.4C13.3249 12.8583 12.9665 13.2333 12.4999 13.2333Z" fill="#292D32"/>
<path d="M7.49987 9.06669C7.0332 9.06669 6.6582 8.69169 6.6582 8.23336C6.6582 7.77502 7.0332 7.40002 7.49154 7.40002C7.94987 7.40002 8.32487 7.77502 8.32487 8.23336C8.32487 8.69169 7.96654 9.06669 7.49987 9.06669Z" fill="#292D32"/>
<path d="M7.19128 13.6916C7.03294 13.6916 6.87461 13.6333 6.74961 13.5083C6.50794 13.2666 6.50794 12.8666 6.74961 12.625L12.3579 7.01664C12.5996 6.77497 12.9996 6.77497 13.2413 7.01664C13.4829 7.2583 13.4829 7.6583 13.2413 7.89997L7.63294 13.5083C7.51628 13.6333 7.34961 13.6916 7.19128 13.6916Z" fill="#292D32"/>
</svg>
