<svg width="20" height="20" viewBox="0 0 20 20" fill="none" xmlns="http://www.w3.org/2000/svg">
<path d="M4.33324 8.71591C4.17491 8.71591 4.00824 8.64925 3.89158 8.53258C3.71658 8.34925 3.65824 8.08258 3.75824 7.84925L5.30824 4.14925C5.34158 4.07425 5.35824 4.02425 5.38324 3.98258C6.61658 1.14091 8.19158 0.449246 10.9749 1.51591C11.1332 1.57425 11.2582 1.69925 11.3249 1.85758C11.3916 2.01591 11.3916 2.19091 11.3249 2.34925L8.88324 8.01591C8.78324 8.24925 8.55824 8.39091 8.30824 8.39091H5.93324C5.45824 8.39091 5.00824 8.48258 4.57491 8.66591C4.49991 8.69925 4.41658 8.71591 4.33324 8.71591ZM8.84158 2.29091C7.80824 2.29091 7.17491 2.96591 6.51658 4.49925C6.50824 4.52425 6.49158 4.54925 6.48324 4.57425L5.39158 7.16591C5.57491 7.14925 5.74991 7.14091 5.93324 7.14091H7.89158L9.89991 2.47425C9.50824 2.34925 9.15824 2.29091 8.84158 2.29091Z" fill="#292D32"/>
<path d="M15.2415 8.55756C15.1832 8.55756 15.1165 8.54922 15.0582 8.53255C14.7415 8.44089 14.4082 8.39089 14.0582 8.39089H8.3082C8.09986 8.39089 7.89986 8.28256 7.7832 8.10755C7.67486 7.93256 7.64986 7.70756 7.7332 7.51589L10.1499 1.90756C10.2749 1.60756 10.6415 1.39922 10.9499 1.50755C11.0499 1.54089 11.1415 1.58256 11.2415 1.62422L13.2082 2.44922C14.3582 2.92422 15.1249 3.42422 15.6249 4.02422C15.7249 4.14089 15.8082 4.26589 15.8915 4.39922C15.9832 4.54089 16.0665 4.70756 16.1249 4.88256C16.1499 4.94089 16.1915 5.04922 16.2165 5.16589C16.4499 5.95756 16.3332 6.92422 15.8332 8.17422C15.7249 8.40756 15.4915 8.55756 15.2415 8.55756ZM9.2582 7.14089H14.0665C14.3332 7.14089 14.5915 7.16589 14.8499 7.20755C15.0832 6.48255 15.1332 5.92422 14.9999 5.47422C14.9832 5.39922 14.9665 5.36589 14.9582 5.33256C14.9082 5.19922 14.8749 5.12422 14.8332 5.05756C14.7749 4.96589 14.7332 4.89089 14.6665 4.81589C14.3082 4.38256 13.6749 3.98256 12.7249 3.59089L11.0832 2.90756L9.2582 7.14089Z" fill="#292D32"/>
<path d="M13.25 18.9592H6.75C6.51667 18.9592 6.3 18.9426 6.08333 18.9176C3.15833 18.7259 1.49167 17.0509 1.29167 14.0926C1.26667 13.9092 1.25 13.6842 1.25 13.4592V11.8342C1.25 9.95924 2.36667 8.26758 4.09167 7.51758C4.68333 7.26758 5.3 7.14258 5.94167 7.14258H14.075C14.55 7.14258 15.0083 7.20925 15.4333 7.34258C17.3917 7.93425 18.7667 9.78425 18.7667 11.8342V13.4592C18.7667 13.6426 18.7583 13.8176 18.75 13.9842C18.5667 17.2426 16.6667 18.9592 13.25 18.9592ZM5.93333 8.39258C5.45833 8.39258 5.00833 8.48424 4.575 8.66758C3.30833 9.21758 2.49167 10.4592 2.49167 11.8342V13.4592C2.49167 13.6342 2.50833 13.8092 2.525 13.9759C2.68333 16.3509 3.85 17.5176 6.19167 17.6759C6.4 17.7009 6.56667 17.7176 6.74167 17.7176H13.2417C15.9917 17.7176 17.3417 16.5092 17.475 13.9259C17.4833 13.7759 17.4917 13.6259 17.4917 13.4592V11.8342C17.4917 10.3259 16.4833 8.97591 15.05 8.53424C14.7333 8.44258 14.4 8.39258 14.05 8.39258H5.93333Z" fill="#292D32"/>
<path d="M1.8667 12.4591C1.52503 12.4591 1.2417 12.1758 1.2417 11.8341V9.39248C1.2417 6.76748 3.10003 4.50081 5.6667 4.00081C5.8917 3.95914 6.12503 4.04248 6.27503 4.21748C6.4167 4.39248 6.45837 4.64248 6.3667 4.85081L4.90837 8.33414C4.8417 8.48414 4.72503 8.60081 4.58337 8.66748C3.3167 9.21748 2.50003 10.4591 2.50003 11.8341C2.4917 12.1758 2.2167 12.4591 1.8667 12.4591ZM4.6667 5.68414C3.60003 6.28414 2.82503 7.33414 2.58337 8.55914C2.95003 8.18414 3.37503 7.86748 3.85837 7.63414L4.6667 5.68414Z" fill="#292D32"/>
<path d="M18.1335 12.4581C17.7918 12.4581 17.5085 12.1748 17.5085 11.8331C17.5085 10.3248 16.5001 8.97481 15.0668 8.53315C14.9001 8.48315 14.7585 8.36648 14.6835 8.20815C14.6085 8.04982 14.6001 7.86648 14.6668 7.70815C15.0585 6.73315 15.1585 6.02481 15.0001 5.47481C14.9835 5.39981 14.9668 5.36648 14.9585 5.33315C14.8501 5.09148 14.9085 4.80815 15.1001 4.62482C15.2918 4.44148 15.5835 4.39981 15.8168 4.52481C17.6335 5.47481 18.7585 7.34148 18.7585 9.39148V11.8331C18.7585 12.1748 18.4751 12.4581 18.1335 12.4581ZM16.0418 7.57481C16.5668 7.81648 17.0335 8.15815 17.4251 8.56648C17.2668 7.74981 16.8751 7.00815 16.3001 6.42481C16.2585 6.77481 16.1751 7.15815 16.0418 7.57481Z" fill="#292D32"/>
</svg>
